<svg xmlns="http://www.w3.org/2000/svg" xmlns:xlink="http://www.w3.org/1999/xlink" width="1080" height="1080" style="width:100%;height:100%;transform:translate3d(0,0,0);content-visibility:visible"><defs><mask id="cn" mask-type="alpha"><use xlink:href="#a"/></mask><mask id="cl" mask-type="alpha"><g filter="url(#b)"><use xlink:href="#c"/></g></mask><mask id="ck" mask-type="alpha"><use xlink:href="#d"/></mask><mask id="cj" mask-type="alpha"><use xlink:href="#e"/></mask><mask id="ch" mask-type="alpha"><g filter="url(#f)"><use xlink:href="#g"/></g></mask><mask id="cf" mask-type="alpha"><use xlink:href="#h"/></mask><mask id="cd" mask-type="alpha"><g filter="url(#i)"><use xlink:href="#j"/></g></mask><mask id="cc" mask-type="alpha"><use xlink:href="#k"/></mask><mask id="cb" mask-type="alpha"><use xlink:href="#l"/></mask><mask id="bZ" mask-type="alpha"><g filter="url(#m)"><use xlink:href="#n"/></g></mask><mask id="bX" mask-type="alpha"><use xlink:href="#o"/></mask><mask id="bV" mask-type="alpha"><g filter="url(#p)"><use xlink:href="#q"/></g></mask><mask id="bU" mask-type="alpha"><use xlink:href="#r"/></mask><mask id="bT" mask-type="alpha"><use xlink:href="#s"/></mask><mask id="bR" mask-type="alpha"><g filter="url(#t)"><use xlink:href="#u"/></g></mask><mask id="bH" mask-type="alpha"><use xlink:href="#v"/></mask><mask id="bG" mask-type="alpha"><use xlink:href="#w"/></mask><mask id="bE" mask-type="alpha"><use xlink:href="#x"/></mask><mask id="bD" mask-type="alpha"><use xlink:href="#y"/></mask><mask id="bB" mask-type="alpha"><use xlink:href="#z"/></mask><mask id="bA" mask-type="alpha"><use xlink:href="#A"/></mask><mask id="by" mask-type="alpha"><use xlink:href="#B"/></mask><mask id="bx" mask-type="alpha"><use xlink:href="#C"/></mask><mask id="bu" mask-type="alpha"><use xlink:href="#D"/></mask><mask id="bv" mask-type="alpha"><use xlink:href="#E"/></mask><mask id="br" mask-type="alpha"><use xlink:href="#F"/></mask><mask id="bs" mask-type="alpha"><use xlink:href="#G"/></mask><mask id="bo" mask-type="alpha"><use xlink:href="#H"/></mask><mask id="bp" mask-type="alpha"><use xlink:href="#I"/></mask><mask id="bl" mask-type="alpha"><use xlink:href="#J"/></mask><mask id="bm" mask-type="alpha"><use xlink:href="#K"/></mask><mask id="bh" mask-type="alpha"><use xlink:href="#L"/></mask><mask id="bd" mask-type="alpha"><use xlink:href="#M"/></mask><mask id="aZ" mask-type="alpha"><use xlink:href="#N"/></mask><mask id="aX" mask-type="alpha"><use xlink:href="#O"/></mask><mask id="aW" mask-type="alpha"><use xlink:href="#P"/></mask><mask id="aV" mask-type="alpha"><use xlink:href="#Q"/></mask><mask id="aT" mask-type="alpha"><use xlink:href="#R"/></mask><mask id="aS" mask-type="alpha"><use xlink:href="#S"/></mask><mask id="aR" mask-type="alpha"><use xlink:href="#T"/></mask><mask id="aP" mask-type="alpha"><use xlink:href="#U"/></mask><mask id="aO" mask-type="alpha"><use xlink:href="#V"/></mask><mask id="aN" mask-type="alpha"><use xlink:href="#W"/></mask><mask id="aL" mask-type="alpha"><use xlink:href="#X"/></mask><mask id="aK" mask-type="alpha"><use xlink:href="#Y"/></mask><mask id="aJ" mask-type="alpha"><use xlink:href="#Z"/></mask><mask id="aG" mask-type="alpha"><use xlink:href="#aa"/></mask><mask id="aF" mask-type="alpha"><use xlink:href="#ab"/></mask><mask id="aE" mask-type="alpha"><use xlink:href="#ac"/></mask><mask id="aC" mask-type="alpha"><use xlink:href="#ad"/></mask><mask id="az" mask-type="alpha"><use xlink:href="#ae"/></mask><mask id="ay" mask-type="alpha"><use xlink:href="#af"/></mask><mask id="ax" mask-type="alpha"><use xlink:href="#ag"/></mask><mask id="av" mask-type="alpha"><use xlink:href="#ah"/></mask><mask id="as" mask-type="alpha"><use xlink:href="#ai"/></mask><mask id="ar" mask-type="alpha"><use xlink:href="#aj"/></mask><mask id="aq" mask-type="alpha"><use xlink:href="#ak"/></mask><mask id="ao" mask-type="alpha"><use xlink:href="#al"/></mask><clipPath id="am"><path d="M0 0h1080v1080H0z"/></clipPath><clipPath id="cg"><path d="M0 0h1920v1079H0z"/></clipPath><clipPath id="cm"><path d="M0 0h1920v1079H0z"/></clipPath><clipPath id="ci"><path d="M0 0h1920v1079H0z"/></clipPath><clipPath id="bY"><path d="M0 0h1920v1079H0z"/></clipPath><clipPath id="ce"><path d="M0 0h1920v1079H0z"/></clipPath><clipPath id="ca"><path d="M0 0h1920v1079H0z"/></clipPath><clipPath id="bQ"><path d="M0 0h1920v1079H0z"/></clipPath><clipPath id="bW"><path d="M0 0h1920v1079H0z"/></clipPath><clipPath id="bS"><path d="M0 0h1920v1079H0z"/></clipPath><clipPath id="bP"><path d="M0 0h1920v1079H0z"/></clipPath><clipPath id="bO"><path d="M0 0h1920v1079H0z"/></clipPath><clipPath id="bN"><path d="M0 0h1920v1079H0z"/></clipPath><clipPath id="bM"><path d="M0 0h1920v1079H0z"/></clipPath><clipPath id="bL"><path d="M0 0h1920v1079H0z"/></clipPath><clipPath id="bK"><path d="M0 0h1920v1079H0z"/></clipPath><clipPath id="bJ"><path d="M0 0h1920v1079H0z"/></clipPath><clipPath id="bI"><path d="M0 0h1920v1079H0z"/></clipPath><clipPath id="bF"><path d="M0 0h1920v1079H0z"/></clipPath><clipPath id="bC"><path d="M0 0h1920v1079H0z"/></clipPath><clipPath id="bz"><path d="M0 0h1920v1079H0z"/></clipPath><clipPath id="bw"><path d="M0 0h1920v1079H0z"/></clipPath><clipPath id="bt"><path d="M0 0h1920v1079H0z"/></clipPath><clipPath id="bq"><path d="M0 0h1920v1079H0z"/></clipPath><clipPath id="bn"><path d="M0 0h1920v1079H0z"/></clipPath><clipPath id="bk"><path d="M0 0h1920v1079H0z"/></clipPath><clipPath id="bg"><path d="M0 0h1920v1079H0z"/></clipPath><clipPath id="bi"><path d="M0 0h1920v1079H0z"/></clipPath><clipPath id="bc"><path d="M0 0h1920v1079H0z"/></clipPath><clipPath id="be"><path d="M0 0h1920v1079H0z"/></clipPath><clipPath id="aY"><path d="M0 0h1920v1079H0z"/></clipPath><clipPath id="ba"><path d="M0 0h1920v1079H0z"/></clipPath><clipPath id="aU"><path d="M0 0h1920v1079H0z"/></clipPath><clipPath id="aQ"><path d="M0 0h1920v1079H0z"/></clipPath><clipPath id="aM"><path d="M0 0h1920v1079H0z"/></clipPath><clipPath id="aI"><path d="M0 0h1920v1079H0z"/></clipPath><clipPath id="aB"><path d="M0 0h1920v1079H0z"/></clipPath><clipPath id="aH"><path d="M0 0h1920v1079H0z"/></clipPath><clipPath id="aD"><path d="M0 0h1920v1079H0z"/></clipPath><clipPath id="au"><path d="M0 0h1920v1079H0z"/></clipPath><clipPath id="aA"><path d="M0 0h1920v1079H0z"/></clipPath><clipPath id="aw"><path d="M0 0h1920v1079H0z"/></clipPath><clipPath id="an"><path d="M0 0h1920v1079H0z"/></clipPath><clipPath id="at"><path d="M0 0h1920v1079H0z"/></clipPath><clipPath id="ap"><path d="M0 0h1920v1079H0z"/></clipPath><path id="e" fill="#DB8D74" d="M521.5 303c-16.5 11-42 12.5-66 13.5s-53.834 22.53-51 52c2.5 26 27.5 43 54.5 43.5 30.012.556 61-2.5 100.5-24s36.5-55.5 23.5-77-45-19-61.5-8z" style="display:block" transform="rotate(-6 6207.043 -8631.536)"/><path id="l" fill="#DB8D74" d="M521.5 303c-16.5 11-42 12.5-66 13.5s-53.834 22.53-51 52c2.5 26 27.5 43 54.5 43.5 30.012.556 61-2.5 100.5-24s36.5-55.5 23.5-77-45-19-61.5-8z" style="display:block" transform="rotate(-6 6207.043 -8631.536)"/><path id="q" fill="#FFF" d="M574.468-189.766C547.954-79.73 964.427-698.104 925.306-542.088c-7.762 29.271-530.53 21.159-572.93 24.1-77.194 4.879-940.049 558.453-1022.87 559.883-17.09.154 57.847 147.413 52.66 120.828C-644.7 46.886-142.113-151.993-61.061-192.567c23.598-20.873 66.636-21.242 78.124-24.205 15.12-13.89 33.881-24.701 62.578-24.947 109.86-.938 339.094-13.31 441.948-11.257 33.074.665 59.48 34.386 52.879 63.21z" style="display:block" transform="matrix(-.4334 -.2651 .2651 -.4334 1555.093 900.571)"/><path id="o" fill="#DB8D74" d="M482.763 275.603c-62.54 10.163-70.236 76.625-62.591 127.106 8.645 49.929 23.159 76.255 59.745 71.089 30.143-4.48 46.95-27.825 42.718-65.137-4.113-34.11 2.888-55.598 6.279-76.482 5.387-32.209-15.527-60.714-46.15-56.576z" style="display:block" transform="rotate(35.667 107.154 2195.246)"/><path id="v" fill="#FFCBA3" d="M208.585-408.855c-7.835-3.645-36.835-2.645-50.532 21.238-12.377 21.58-5.057 49.093 16.487 61.532 0 0 2.21 1.585 4.192 2.604C165-376.5 201.25-403.25 213.777-407.001c-1.277-.999-5.192-1.854-5.192-1.854z" style="display:block" transform="rotate(.02 -2326156.838 4082455.061)"/><path id="w" fill="#B23232" d="m181.611-391.64 1.47 3.198c1.386 3.013.04 6.561-3.004 7.925-3.045 1.363-6.635.025-8.02-2.989l-1.47-3.198c-1.386-3.014-.041-6.561 3.004-7.925 3.044-1.363 6.635-.026 8.02 2.988z" style="display:block" transform="rotate(.02 -2326156.838 4082455.061)"/><path id="x" fill="#FFCBA3" d="M208.585-408.855c-7.835-3.645-36.835-2.645-50.532 21.238-12.377 21.58-5.057 49.093 16.487 61.532 0 0 2.21 1.585 4.192 2.604C165-376.5 201.25-403.25 213.777-407.001c-1.277-.999-5.192-1.854-5.192-1.854z" style="display:block" transform="rotate(1.568 -20927.52 37851.114)"/><path id="y" fill="#B23232" d="m184.23-391.34 1.119 3.378c1.054 3.184-.808 6.524-4.159 7.46-3.35.936-6.92-.888-7.975-4.072l-1.118-3.378c-1.054-3.185.808-6.524 4.158-7.46 3.35-.936 6.921.887 7.975 4.071z" style="display:block" transform="rotate(1.568 -20927.52 37851.114)"/><path id="z" fill="#FFCBA3" d="M208.585-408.855c-7.835-3.645-36.835-2.645-50.532 21.238-12.377 21.58-5.057 49.093 16.487 61.532 0 0 2.21 1.585 4.192 2.604C165-376.5 201.25-403.25 213.777-407.001c-1.277-.999-5.192-1.854-5.192-1.854z" style="display:block" transform="rotate(.371 -90338.272 159741.162)"/><path id="A" fill="#B23232" d="m181.037-391.706 1.547 3.158a5.998 5.998 0 0 1-2.751 8.027 6.003 6.003 0 0 1-8.03-2.75l-1.548-3.16a5.998 5.998 0 0 1 2.752-8.026 6.003 6.003 0 0 1 8.03 2.75z" style="display:block" transform="rotate(.371 -90338.272 159741.162)"/><path id="B" fill="#FFCBA3" d="M208.768-408.776c-8.063-3.791-37.039-2.685-50.715 21.159-12.378 21.58-5.066 49.068 16.487 61.532.115.073 2.42 1.706 4.478 2.76-13.036-51.912 23.313-79.437 35.218-83.4-1.353-1.046-5.468-2.051-5.468-2.051z" style="display:block" transform="rotate(.333 -101231.65 179294.114) scale(1.00249)"/><path id="C" fill="#B23232" d="m181.375-391.582 1.527 3.116a6.02 6.02 0 0 1-10.807 5.306l-1.527-3.116a6.02 6.02 0 0 1 10.807-5.306z" style="display:block" transform="rotate(.333 -101304.326 179342.885) scale(1.00249)"/><path id="E" fill="#58CC02" d="M318.202-45.464c15.252 94.999-31.572 144.035-95.655 159.537-84.448 20.428-134.794-43.146-151.05-96.71C16-165.5 158.631-177.933 166.59-174.39a21.642 21.642 0 0 0 13.898 1.277c13.72-3.334 29.364-13.462 52.062-24.71 28.634-14.19 72.547 1.407 71.323 40.679 0 0 5.505 56.717 14.329 111.68zm-15 4c15.252 94.999-16.572 140.035-80.655 155.537-84.448 20.428-144.155-35.09-168.05-85.71C36.399-9.976 31.209-79.308 31.209-79.308c-2.443-42.408 8.57-88.445 47.15-106.222 17.568-8.095 35.66-11.367 49.816-6.28 21.939 7.884 30.456 13.877 38.415 17.42 4.363 1.942 127.788 77.963 136.612 132.926z" style="display:block" transform="rotate(-2.646 13776.4 -22136.3)"/><path id="G" fill="#58CC02" d="M318.202-45.464c15.252 94.999-31.572 144.035-95.655 159.537-84.448 20.428-134.794-43.146-151.05-96.71C16-165.5 158.631-177.933 166.59-174.39a21.642 21.642 0 0 0 13.898 1.277c13.72-3.334 29.364-13.462 52.062-24.71 28.634-14.19 72.547 1.407 71.323 40.679 0 0 5.505 56.717 14.329 111.68zm-15 4c15.252 94.999-16.572 140.035-80.655 155.537-84.448 20.428-144.155-35.09-168.05-85.71C36.399-9.976 31.209-79.308 31.209-79.308c-2.443-42.408 8.57-88.445 47.15-106.222 17.568-8.095 35.66-11.367 49.816-6.28 21.939 7.884 30.456 13.877 38.415 17.42 4.363 1.942 127.788 77.963 136.612 132.926z" style="display:block" transform="rotate(-2.989 12395.394 -19598.074)"/><path id="I" fill="#58CC02" d="M318.202-45.464c15.252 94.999-31.572 144.035-95.655 159.537-84.448 20.428-134.794-43.146-151.05-96.71C16-165.5 158.631-177.933 166.59-174.39a21.642 21.642 0 0 0 13.898 1.277c13.72-3.334 29.364-13.462 52.062-24.71 28.634-14.19 72.547 1.407 71.323 40.679 0 0 5.505 56.717 14.329 111.68zm-15 4c15.252 94.999-16.572 140.035-80.655 155.537-84.448 20.428-144.155-35.09-168.05-85.71C36.399-9.976 31.209-79.308 31.209-79.308c-2.443-42.408 8.57-88.445 47.15-106.222 17.568-8.095 35.66-11.367 49.816-6.28 21.939 7.884 30.456 13.877 38.415 17.42 4.363 1.942 127.788 77.963 136.612 132.926z" style="display:block" transform="rotate(-1.397 25161.524 -42122.332)"/><path id="K" fill="#58CC02" d="M318.417-43.72c13.915 95.068-32.296 144.375-97.268 158.81-85.644 19.02-130.835-44.79-147.09-98.354-55.498-182.863 85.008-193.7 92.973-190.172 4.822 2.123 10.443 2.313 15.086 1.198 13.794-3.31 28.847-12.991 51.222-23.9 29.102-14.062 72.231 1.915 71.563 41.162.464 2.468 5.454 56.415 13.514 111.255zm-15.215 2.256c14.971 95.04-16.863 141.04-80.92 156.646-84.413 20.566-144.791-33.465-167.86-85.51-17.24-38.47-22.858-104.56-22.014-108.868-1.35-42.407 9.31-87.04 46.53-105.753 17.125-8.709 35.425-11.953 49.581-6.866 21.939 7.884 30.188 14.422 38.159 17.939 6.89 2.952 127.873 77.507 136.524 132.412z" style="display:block" transform="matrix(.99406 -.02435 .02435 .99406 1041.115 600.193)"/><path id="L" fill="#FFC7B8" d="M552.811-154.957c-14.873-8.982-34.962-11.237-52.179-1.891l-28.256 15.339a51.11 51.11 0 0 0-25.616 34.316l-7.98 37.63C434.57-49.714 440-30 458.986-17.428 477.972-4.856 510.5 12 528.501 43.852c6.897 12.204 42.974 11.603 54.934 7.15l38.691-9.376A38.335 38.335 0 0 0 651.93 8.839l6.319-51.72c-.568-6.318-6.973-19.296-11.519-26.102C621-107.5 590-132.5 552.811-154.957z" style="display:block" transform="rotate(-6.966 5759.877 -7826.362)"/><path id="M" fill="#FFC7B8" d="M552.811-154.957c-14.873-8.982-34.962-11.237-52.179-1.891l-28.256 15.339a51.11 51.11 0 0 0-25.616 34.316l-7.98 37.63C434.57-49.714 440-30 458.986-17.428 477.972-4.856 510.5 12 528.501 43.852c6.897 12.204 42.974 11.603 54.934 7.15l38.691-9.376A38.335 38.335 0 0 0 651.93 8.839l6.319-51.72c-.568-6.318-6.973-19.296-11.519-26.102C621-107.5 590-132.5 552.811-154.957z" style="display:block" transform="rotate(-4.598 8166.391 -12018.619)"/><path id="N" fill="#FFC7B8" d="M570.88-138.257c-15.727-9.009-26.996-9.068-42.233-5.149-14.569 2.413-38.682 8.795-54.1 12.92-18.245 5.66-23.457 20.559-26.901 37.288-2.777 13.585-8.903 45.89-10.778 57.063C434.088-20.7 444.64.099 466.505 4.62c29.553 5.31 62.915 13.068 86.091 27.006 6.782 4.569 20.091 7.918 30.15 6.655 7.49-.306 31.897-1.908 46.613-1.906 18.129-.75 23.509-12.906 29.363-27.688 4.726-9.845 9.735-33.486 12.135-48.376 1.116-9.043-2.612-21.27-9.783-29.398-30.288-34.915-69.673-57.266-90.194-69.17z" style="display:block" transform="matrix(.90473 -.2718 .2718 .90473 1000.562 732.387)"/><path id="O" fill="#CC348D" d="M745.232-224.137c-.304-28.44 22.505-51.741 50.945-52.045 28.44-.304 51.741 22.506 52.045 50.946.304 28.44-22.505 51.74-50.945 52.044-28.44.304-51.741-22.505-52.045-50.945z" style="display:block" transform="rotate(-3.225 11773.017 -18195.726)"/><path id="P" fill="#0084C2" d="M732.862-124.382c4.759-25.473 29.266-42.264 54.739-37.505s42.265 29.265 37.506 54.738-29.266 42.265-54.739 37.506-42.265-29.266-37.506-54.739z" style="display:block" transform="rotate(3.225 -9135.546 18467.86)"/><path id="Q" fill="#AFD5E0" d="M750.527-172.52c-2.856 6.832 153.036 310.917-59.97 264.614s1.1-278.504 4.916-287.632c3.816-9.128 19.234-11.375 34.437-5.019 15.203 6.356 24.433 18.909 20.617 28.037z" style="display:block" transform="rotate(-6.449 6505.285 -9054.674)"/><path id="R" fill="#CC348D" d="M745.232-224.137c-.304-28.44 22.505-51.741 50.945-52.045 28.44-.304 51.741 22.506 52.045 50.946.304 28.44-22.505 51.74-50.945 52.044-28.44.304-51.741-22.505-52.045-50.945z" style="display:block" transform="rotate(-5.989 6934.078 -9712.103)"/><path id="S" fill="#0084C2" d="M732.862-124.382c4.759-25.473 29.266-42.264 54.739-37.505s42.265 29.265 37.506 54.738-29.266 42.265-54.739 37.506-42.265-29.266-37.506-54.739z" style="display:block" transform="rotate(5.989 -4300.438 9982.162)"/><path id="T" fill="#AFD5E0" d="M750.527-172.52c-2.856 6.832 153.036 310.917-59.97 264.614s1.1-278.504 4.916-287.632c3.816-9.128 19.234-11.375 34.437-5.019 15.203 6.356 24.433 18.909 20.617 28.037z" style="display:block" transform="rotate(-11.978 4080.432 -4797.177)"/><path id="U" fill="#CC348D" d="M745.232-224.137c-.304-28.44 22.505-51.741 50.945-52.045 28.44-.304 51.741 22.506 52.045 50.946.304 28.44-22.505 51.74-50.945 52.044-28.44.304-51.741-22.505-52.045-50.945z" style="display:block" transform="rotate(-1.297 27350.95 -45517.09)"/><path id="V" fill="#0084C2" d="M732.862-124.382c4.759-25.473 29.266-42.264 54.739-37.505s42.265 29.265 37.506 54.738-29.266 42.265-54.739 37.506-42.265-29.266-37.506-54.739z" style="display:block" transform="rotate(1.297 -24711.168 45790.47)"/><path id="W" fill="#AFD5E0" d="M750.527-172.52c-2.856 6.832 153.036 310.917-59.97 264.614s1.1-278.504 4.916-287.632c3.816-9.128 19.234-11.375 34.437-5.019 15.203 6.356 24.433 18.909 20.617 28.037z" style="display:block" transform="rotate(-2.593 14297.464 -22720.747)"/><path id="X" fill="#CC348D" d="M745.232-224.137c-.304-28.44 22.505-51.741 50.945-52.045 28.44-.304 51.741 22.506 52.045 50.946.304 28.44-22.505 51.74-50.945 52.044-28.44.304-51.741-22.505-52.045-50.945z" style="display:block" transform="matrix(.98873 -.18934 .18934 .98873 1075.544 737.598)"/><path id="Y" fill="#0084C2" d="M732.862-124.382c4.759-25.473 29.266-42.264 54.739-37.505s42.265 29.265 37.506 54.738-29.266 42.265-54.739 37.506-42.265-29.266-37.506-54.739z" style="display:block" transform="translate(1026.953 589.195) scale(1.00502)"/><path id="Z" fill="#AFD5E0" d="M750.527-172.52c-2.856 6.832 153.036 310.917-59.97 264.614s1.1-278.504 4.916-287.632c3.816-9.128 19.234-11.375 34.437-5.019 15.203 6.356 24.433 18.909 20.617 28.037z" style="display:block" transform="rotate(6.719 -3752.538 8854.619)"/><path id="aa" fill="#FFF" d="M638.033-169.849c-41.207 112.587-110.385 302.331-170.99 469.348-11.827 32.594-21.429 51.144-71.04 55.59-84.82 7.601-163.41 13.29-252.041 16.588-15.917.592-33.228-11.412-36.908-42.619-14.53-123.235-31.678-302.891-47.058-481.524-2.828-32.845 23.041-69.646 70.892-70.091 112.027-1.042 349.193-14.511 455.264-10.36 34.205 1.339 62.292 34.624 51.881 63.068z" style="display:block" transform="rotate(-145 914.887 215.665) scale(.5)"/><path id="ad" fill="#FFF" d="M615.125 597.383S518.546 449.096 506.719 481.69c-11.827 32.594-61.105-131.047-110.716-126.601-84.82 7.601-163.41 13.29-252.041 16.588-15.917.592-33.228-11.412-36.908-42.619-14.53-123.235-31.678-302.891-47.058-481.524-2.828-32.845 23.041-69.646 70.892-70.091 112.027-1.042 349.193-14.511 455.264-10.36 34.205 1.339 62.292 34.624 51.881 63.068C596.826-57.262 923.151 9.427 923.151 9.427s83.359 177.85 82.666 179.759c-.334.919-390.692 408.197-390.692 408.197z" style="display:block" transform="rotate(-145 914.887 215.665) scale(.5)"/><path id="ab" fill="#FFF" d="M412.599 78.212c-6.132 3.04-7.257 9.111-7.45 10.036l-2.078 9.955c-.804 3.852 1.678 7.626 5.543 8.43l7.348 1.528c7.924 1.648 15.683-3.417 17.331-11.313.495-2.371 3.308-16.424 3.308-16.424s-16.193-6.083-24.002-2.212zm-14.702-3.734c3.902 5.915 3.593 9.268 3.279 11.761-.411 3.262-1.961 10.655-1.961 10.655-.863 4.124-4.939 6.767-9.102 5.904l-7.271-1.508c-8.179-1.696-13.434-9.638-11.738-17.74.661-3.158 3.897-16.189 3.897-16.189s19.186 1.492 22.896 7.117z" style="display:block" transform="rotate(-.773 44097.058 -72757.563)"/><path id="ac" fill="#FFF" d="M412.599 78.212c-6.132 3.04-7.257 9.111-7.45 10.036l-2.078 9.955c-.804 3.852 1.678 7.626 5.543 8.43l7.348 1.528c7.924 1.648 15.683-3.417 17.331-11.313.495-2.371 3.308-16.424 3.308-16.424s-16.193-6.083-24.002-2.212zm-14.702-3.734c3.902 5.915 3.593 9.268 3.279 11.761-.411 3.262-1.961 10.655-1.961 10.655-.863 4.124-4.939 6.767-9.102 5.904l-7.271-1.508c-8.179-1.696-13.434-9.638-11.738-17.74.661-3.158 3.897-16.189 3.897-16.189s19.186 1.492 22.896 7.117z" style="display:block" transform="rotate(-.773 44097.058 -72757.563)"/><path id="ae" fill="#FFF" d="M638.033-169.849c-41.207 112.587-110.385 302.331-170.99 469.348-11.827 32.594-21.429 51.144-71.04 55.59-84.82 7.601-163.41 13.29-252.041 16.588-15.917.592-33.228-11.412-36.908-42.619-14.53-123.235-31.678-302.891-47.058-481.524-2.828-32.845 23.041-69.646 70.892-70.091 112.027-1.042 349.193-14.511 455.264-10.36 34.205 1.339 62.292 34.624 51.881 63.068z" style="display:block" transform="rotate(-145 914.887 215.665) scale(.5)"/><path id="ah" fill="#FFF" d="M615.125 597.383S518.546 449.096 506.719 481.69c-11.827 32.594-61.105-131.047-110.716-126.601-84.82 7.601-163.41 13.29-252.041 16.588-15.917.592-33.228-11.412-36.908-42.619-14.53-123.235-31.678-302.891-47.058-481.524-2.828-32.845 23.041-69.646 70.892-70.091 112.027-1.042 349.193-14.511 455.264-10.36 34.205 1.339 62.292 34.624 51.881 63.068C596.826-57.262 923.151 9.427 923.151 9.427s83.359 177.85 82.666 179.759c-.334.919-390.692 408.197-390.692 408.197z" style="display:block" transform="rotate(-145 914.887 215.665) scale(.5)"/><path id="af" fill="#FFF" d="M412.599 78.212c-6.132 3.04-7.257 9.111-7.45 10.036l-2.078 9.955c-.804 3.852 1.678 7.626 5.543 8.43l7.348 1.528c7.924 1.648 15.683-3.417 17.331-11.313.495-2.371 3.308-16.424 3.308-16.424s-16.193-6.083-24.002-2.212zm-14.702-3.734c3.902 5.915 3.593 9.268 3.279 11.761-.411 3.262-1.961 10.655-1.961 10.655-.863 4.124-4.939 6.767-9.102 5.904l-7.271-1.508c-8.179-1.696-13.434-9.638-11.738-17.74.661-3.158 3.897-16.189 3.897-16.189s19.186 1.492 22.896 7.117z" style="display:block" transform="rotate(.183 -182253.553 312299.519)"/><path id="ag" fill="#FFF" d="M412.599 78.212c-6.132 3.04-7.257 9.111-7.45 10.036l-2.078 9.955c-.804 3.852 1.678 7.626 5.543 8.43l7.348 1.528c7.924 1.648 15.683-3.417 17.331-11.313.495-2.371 3.308-16.424 3.308-16.424s-16.193-6.083-24.002-2.212zm-14.702-3.734c3.902 5.915 3.593 9.268 3.279 11.761-.411 3.262-1.961 10.655-1.961 10.655-.863 4.124-4.939 6.767-9.102 5.904l-7.271-1.508c-8.179-1.696-13.434-9.638-11.738-17.74.661-3.158 3.897-16.189 3.897-16.189s19.186 1.492 22.896 7.117z" style="display:block" transform="rotate(.183 -182253.553 312299.519)"/><path id="ai" fill="#FFF" d="M578.387-188.538C550.967-78.344 508.34 129.45 467.894 286.145c-8.012 29.476-15.917 46.806-58.762 49.84-77.664 5.046-159.935 7.659-243.113 9.204-17.018.18-33.069-9.83-38.163-36.7C101.751 192.197 47.404-12.979 19.007-175.073c-6.3-31.797 17.43-65.065 63.793-65.464 109.993-.945 339.718-13.385 442.77-11.203 33.144.707 59.654 34.4 52.817 63.202z" style="display:block" transform="matrix(-.4334 -.2651 .2651 -.4334 1554.788 901.664)"/><path id="al" fill="#FFF" d="M724.104 559.536S504.863 389.632 496.85 419.109c-8.013 29.476-44.873-86.158-87.718-83.124-77.664 5.046-159.935 7.659-243.113 9.204-17.018.18-33.069-9.83-38.163-36.7C101.751 192.197 47.404-12.979 19.007-175.073c-6.3-31.797 17.43-65.065 63.793-65.464 109.993-.945 339.718-13.385 442.77-11.203 33.144.707 59.654 34.4 52.817 63.202C550.967-78.344 975.904 1.302 975.904 1.302s46.015 200.683 45.51 202.076c-.245.67-297.31 356.158-297.31 356.158z" style="display:block" transform="matrix(-.4334 -.2651 .2651 -.4334 1554.788 901.664)"/><path id="aj" fill="#FFF" d="M412.599 78.212c-6.132 3.04-7.257 9.111-7.45 10.036l-2.078 9.955c-.804 3.852 1.678 7.626 5.543 8.43l7.348 1.528c7.924 1.648 15.683-3.417 17.331-11.313.495-2.371 3.308-16.424 3.308-16.424s-16.193-6.083-24.002-2.212zm-14.702-3.734c3.902 5.915 3.593 9.268 3.279 11.761-.411 3.262-1.961 10.655-1.961 10.655-.863 4.124-4.939 6.767-9.102 5.904l-7.271-1.508c-8.179-1.696-13.434-9.638-11.738-17.74.661-3.158 3.897-16.189 3.897-16.189s19.186 1.492 22.896 7.117z" style="display:block" transform="matrix(.92544 .11175 -.11562 .95749 1031.434 553.816)"/><path id="ak" fill="#FFF" d="M412.599 78.212c-6.132 3.04-7.257 9.111-7.45 10.036l-2.078 9.955c-.804 3.852 1.678 7.626 5.543 8.43l7.348 1.528c7.924 1.648 15.683-3.417 17.331-11.313.495-2.371 3.308-16.424 3.308-16.424s-16.193-6.083-24.002-2.212zm-14.702-3.734c3.902 5.915 3.593 9.268 3.279 11.761-.411 3.262-1.961 10.655-1.961 10.655-.863 4.124-4.939 6.767-9.102 5.904l-7.271-1.508c-8.179-1.696-13.434-9.638-11.738-17.74.661-3.158 3.897-16.189 3.897-16.189s19.186 1.492 22.896 7.117z" style="display:block" transform="matrix(.92544 .11175 -.11562 .95749 1031.434 553.816)"/><filter id="b" width="100%" height="100%" x="0%" y="0%" filterUnits="objectBoundingBox"><feComponentTransfer in="SourceGraphic"><feFuncA tableValues="1.0 0.0" type="table"/></feComponentTransfer></filter><filter id="f" width="100%" height="100%" x="0%" y="0%" filterUnits="objectBoundingBox"><feComponentTransfer in="SourceGraphic"><feFuncA tableValues="1.0 0.0" type="table"/></feComponentTransfer></filter><filter id="i" width="100%" height="100%" x="0%" y="0%" filterUnits="objectBoundingBox"><feComponentTransfer in="SourceGraphic"><feFuncA tableValues="1.0 0.0" type="table"/></feComponentTransfer></filter><filter id="m" width="100%" height="100%" x="0%" y="0%" filterUnits="objectBoundingBox"><feComponentTransfer in="SourceGraphic"><feFuncA tableValues="1.0 0.0" type="table"/></feComponentTransfer></filter><filter id="p" width="100%" height="100%" x="0%" y="0%" filterUnits="objectBoundingBox"><feComponentTransfer in="SourceGraphic"><feFuncA tableValues="1.0 0.0" type="table"/></feComponentTransfer></filter><filter id="t" width="100%" height="100%" x="0%" y="0%" filterUnits="objectBoundingBox"><feComponentTransfer in="SourceGraphic"><feFuncA tableValues="1.0 0.0" type="table"/></feComponentTransfer></filter><g id="g" style="display:block"><path fill="#FFF" d="M1230.584 803.67C1279.75 769.375 824.5 949.5 897.22 898.474c14.192-9.958 309.445 207.2 331.04 219.606 36.92 21.212 659.74 8.42 696.987 32.488 6.69 4.322 21.337-112.796 13.894-98.96-29.391 54.642-285.89-12.858-330.821 64.717-3.453 5.96-145.156-143.233-152.065-140.645-9.625 3.604-21.59 2.904-33.072-4.979-46.183-31.7-147.183-94.2-189.437-126.32-13.625-10.359-15.583-32.046-3.162-40.71z"/><path fill-opacity="0" stroke="#9DEEC7" stroke-width="6.5" d="M1230.584 803.67C1279.75 769.375 824.5 949.5 897.22 898.474c14.192-9.958 309.445 207.2 331.04 219.606 36.92 21.212 659.74 8.42 696.987 32.488 6.69 4.322 21.337-112.796 13.894-98.96-29.391 54.642-285.89-12.858-330.821 64.717-3.453 5.96-145.156-143.233-152.065-140.645-9.625 3.604-21.59 2.904-33.072-4.979-46.183-31.7-147.183-94.2-189.437-126.32-13.625-10.359-15.583-32.046-3.162-40.71z"/></g><g id="d" style="display:block"><path fill="#DB8D74" d="M1486.56 848.357c-15.26 12.664-40.464 16.822-64.228 20.325-23.764 3.503-51.184 28.034-45.285 57.046 5.204 25.596 31.844 39.89 58.748 37.565 29.906-2.584 60.405-8.863 97.441-34.374 37.036-25.51 30.499-59.011 15.323-79.034-15.177-20.024-46.74-14.193-62-1.528z"/><path fill-opacity="0" stroke="#3D3D3D" stroke-width="2" d="M1486.56 848.357c-15.26 12.664-40.464 16.822-64.228 20.325-23.764 3.503-51.184 28.034-45.285 57.046 5.204 25.596 31.844 39.89 58.748 37.565 29.906-2.584 60.405-8.863 97.441-34.374 37.036-25.51 30.499-59.011 15.323-79.034-15.177-20.024-46.74-14.193-62-1.528z"/></g><g id="n" style="display:block"><path fill="#FFF" d="M1230.584 803.67C1279.75 769.375 824.5 949.5 897.22 898.474c14.192-9.958 309.445 207.2 331.04 219.606 36.92 21.212 659.74 8.42 696.987 32.488 6.69 4.322 21.337-112.796 13.894-98.96-29.391 54.642-285.89-12.858-330.821 64.717-3.453 5.96-145.156-143.233-152.065-140.645-9.625 3.604-21.59 2.904-33.072-4.979-46.183-31.7-147.183-94.2-189.437-126.32-13.625-10.359-15.583-32.046-3.162-40.71z"/><path fill-opacity="0" stroke="#9DEEC7" stroke-width="6.5" d="M1230.584 803.67C1279.75 769.375 824.5 949.5 897.22 898.474c14.192-9.958 309.445 207.2 331.04 219.606 36.92 21.212 659.74 8.42 696.987 32.488 6.69 4.322 21.337-112.796 13.894-98.96-29.391 54.642-285.89-12.858-330.821 64.717-3.453 5.96-145.156-143.233-152.065-140.645-9.625 3.604-21.59 2.904-33.072-4.979-46.183-31.7-147.183-94.2-189.437-126.32-13.625-10.359-15.583-32.046-3.162-40.71z"/></g><g id="k" style="display:block"><path fill="#DB8D74" d="M1486.56 848.357c-15.26 12.664-40.464 16.822-64.228 20.325-23.764 3.503-51.184 28.034-45.285 57.046 5.204 25.596 31.844 39.89 58.748 37.565 29.906-2.584 60.405-8.863 97.441-34.374 37.036-25.51 30.499-59.011 15.323-79.034-15.177-20.024-46.74-14.193-62-1.528z"/><path fill-opacity="0" stroke="#3D3D3D" stroke-width="2" d="M1486.56 848.357c-15.26 12.664-40.464 16.822-64.228 20.325-23.764 3.503-51.184 28.034-45.285 57.046 5.204 25.596 31.844 39.89 58.748 37.565 29.906-2.584 60.405-8.863 97.441-34.374 37.036-25.51 30.499-59.011 15.323-79.034-15.177-20.024-46.74-14.193-62-1.528z"/></g><linearGradient id="bj" x1="475" x2="566.067" y1="-110.003" y2="-38.825" gradientUnits="userSpaceOnUse" spreadMethod="pad"><stop offset="0%" stop-color="#FFA75F"/><stop offset="50%" stop-color="#FFB78B"/><stop offset="100%" stop-color="#FFC7B8"/></linearGradient><linearGradient id="bf" x1="475" x2="566.067" y1="-110.003" y2="-38.825" gradientUnits="userSpaceOnUse" spreadMethod="pad"><stop offset="0%" stop-color="#FFA75F"/><stop offset="50%" stop-color="#FFB78B"/><stop offset="100%" stop-color="#FFC7B8"/></linearGradient><linearGradient id="bb" x1="494.903" x2="579.79" y1="-69.533" y2="1.296" gradientUnits="userSpaceOnUse" spreadMethod="pad"><stop offset="0%" stop-color="#FFA75F"/><stop offset="50%" stop-color="#FFB78B"/><stop offset="100%" stop-color="#FFC7B8"/></linearGradient></defs><g clip-path="url(#am)"><g clip-path="url(#au)" style="display:block" transform="matrix(-1 0 0 1 1916 -23.5)"><g style="display:block"><path fill="#58CC02" d="M1230.485 803.743c49.265-34.368 132.015-92.243 204.643-143.202 2.002-1.405 3.906-2.71 5.76-3.878 4.8-3.029 9.266-5.15 14.243-5.77 6.718-.835 14.365 1.067 25.027 7.176 36.967 21.181 70.905 41.494 108.168 65.572 4.658 3.01 6.174 7.172 6.757 10.689.983 5.927-.897 11.436-3.946 17.277-3.012 5.768-6.232 11.558-9.996 18.377C1550.5 825.5 1502 911.25 1472.57 961.824c-4.698 8.072-10.57 15.176-16.747 21.73-4.887 5.184-14.269 14.656-20.551 18.658-11.597 7.387-24.773 4.218-34.089-2.01C1359.001 972 1261.5 906.5 1219.247 875.38c-8.648-6.368-11.976-19.711-10.496-25.73 2.25-9.15 4.91-17.376 8.08-24.263 3.17-6.887 7.327-17.231 13.654-21.644z"/><path fill="none" stroke="#58CC02" stroke-width="6.5" d="M1230.485 803.743c49.265-34.368 132.015-92.243 204.643-143.202 2.002-1.405 3.906-2.71 5.76-3.878 4.8-3.029 9.266-5.15 14.243-5.77 6.718-.835 14.365 1.067 25.027 7.176 36.967 21.181 70.905 41.494 108.168 65.572 4.658 3.01 6.174 7.172 6.757 10.689.983 5.927-.897 11.436-3.946 17.277-3.012 5.768-6.232 11.558-9.996 18.377C1550.5 825.5 1502 911.25 1472.57 961.824c-4.698 8.072-10.57 15.176-16.747 21.73-4.887 5.184-14.269 14.656-20.551 18.658-11.597 7.387-24.773 4.218-34.089-2.01C1359.001 972 1261.5 906.5 1219.247 875.38c-8.648-6.368-11.976-19.711-10.496-25.73 2.25-9.15 4.91-17.376 8.08-24.263 3.17-6.887 7.327-17.231 13.654-21.644z"/><path fill="#FFF" d="M1230.584 803.67c49.166-34.295 131.916-92.17 204.637-143.195 14.192-9.958 23.444-14.802 45.039-2.395 36.92 21.212 70.74 41.42 107.987 65.488 6.69 4.322 10.337 14.203 2.894 28.04-29.391 54.642-73.89 133.142-118.821 210.717-8.262 14.263-29.411 21.917-49.137 8.376-46.183-31.7-147.183-94.2-189.437-126.32-13.625-10.359-15.583-32.046-3.162-40.71z"/><path fill="none" stroke="#9DEEC7" stroke-width="6.5" d="M1230.584 803.67c49.166-34.295 131.916-92.17 204.637-143.195 14.192-9.958 23.444-14.802 45.039-2.395 36.92 21.212 70.74 41.42 107.987 65.488 6.69 4.322 10.337 14.203 2.894 28.04-29.391 54.642-73.89 133.142-118.821 210.717-8.262 14.263-29.411 21.917-49.137 8.376-46.183-31.7-147.183-94.2-189.437-126.32-13.625-10.359-15.583-32.046-3.162-40.71z"/></g><g mask="url(#av)" style="display:block"><g clip-path="url(#aw)"><path fill="#A175F9" d="M313.521 147.178c-2.496-1.13-3.599-4.028-2.476-6.501l35.505-79.229c12.52-26.807 39.038-43.041 67.437-37.268 27.928 5.677 46.166 30.165 46.598 59.638l2.639 83.935c.083 2.624-1.929 4.848-4.581 5.07-10.243.861-36.655.563-68.6-4.036-33.353-4.801-65.03-16.407-76.522-21.609z" style="display:block" transform="rotate(-2.369 14883.622 -23318.768)"/><g style="display:block"><path fill="#A570FF" d="M1337.934 765.258c3.133-6.807 13.565-9.7 20.372-6.567 6.807 3.134 12.738 14.199 9.604 21.006 0 0-6.976 18.555-13.176 29.692-5.452 9.794-13.36 20.947-13.36 20.947-6.241 7.253-11.194 9.785-18.001 6.651-6.807-3.133-9.786-11.192-6.652-18 0 0 6.3-13.317 10.518-24 4.219-10.684 10.695-29.73 10.695-29.73z"/><path fill="#593F86" d="M1337.934 765.258s8.649-30.305 11.495-56.664l36.303 6.597c-.995 25.704-17.118 62.944-17.118 62.944-3.05 1.476-13.506 3.97-20.394.8-6.323-2.911-9.475-10.617-10.286-13.677z"/><path fill="#FFC6B7" d="M1388.162 762.09c-.819 5.474-5.92 9.247-11.392 8.428-5.473-.818-9.247-5.918-8.428-11.39.819-5.473 5.92-9.247 11.392-8.428 5.473.818 9.246 5.918 8.428 11.39z"/><path fill="#593F86" d="m1368.318 705.384-50.98 22.816c-12.028 5.384-9.686 23.114 3.327 25.189l78.6 12.529c13.053 2.08 20.776-14.131 10.938-22.957l-41.885-37.577z"/><path fill="#FFC6B7" d="M1362.658 736.215c-6.37-5.455-9.16-9.255-13.858-9.958-4.613-.69-8.95 1.889-10.693 5.991 5.038.823 17.309 2.797 24.55 3.967z"/></g><path fill="#FFC6B7" d="m450.338 91.599 4.29.88c6.08 1.246 9.998 7.024 8.753 12.907-1.246 5.883-7.186 9.642-13.266 8.396l-4.291-.88c-6.08-1.245-10-7.023-8.752-12.906 1.247-5.883 7.186-9.643 13.266-8.397zm-33.619-59.285c24.256 5.058 40.846 27.56 38.541 52.277l-5.116 39.92c-2.524 13.181-12.859 21.445-25.152 20.885-12.066-.55-19.554-1.305-35.019-2.624-15.465-1.319-26.56-9.131-26.56-9.131-12.999-2.711-21.339-15.466-18.628-28.489a24.11 24.11 0 0 1 .936-3.302l13.566-37.444c8.519-23.515 32.991-37.189 57.432-32.092z" style="display:block" transform="rotate(1.631 -19355.791 34755.6)"/><path fill="#FFF" d="M412.599 78.212c-6.132 3.04-7.257 9.111-7.45 10.036l-2.078 9.955c-.804 3.852 1.678 7.626 5.543 8.43l7.348 1.528c7.924 1.648 15.683-3.417 17.331-11.313.495-2.371 3.308-16.424 3.308-16.424s-16.193-6.083-24.002-2.212zm-14.702-3.734c3.902 5.915 3.593 9.268 3.279 11.761-.411 3.262-1.961 10.655-1.961 10.655-.863 4.124-4.939 6.767-9.102 5.904l-7.271-1.508c-8.179-1.696-13.434-9.638-11.738-17.74.661-3.158 3.897-16.189 3.897-16.189s19.186 1.492 22.896 7.117z" style="display:block" transform="rotate(.183 -182253.553 312299.519)"/><g mask="url(#ax)" style="display:block"><path fill="#3D3D3D" d="M1426.095 674.74c-.846 3.768-4.211 5.949-7.72 5.193-3.509-.755-5.694-4.31-4.987-7.926.708-3.617 1.931-9.765 1.931-9.765l12.942 2.116s-1.318 6.614-2.166 10.382zm-32.787-5.926c-.757 4.277-4.212 5.948-7.72 5.193-3.51-.755-5.635-4.537-4.988-7.927.664-3.474.71-2.981.71-2.981l12.496 2.182s.258-.745-.498 3.533z"/></g><g mask="url(#ay)" style="display:block"><path fill="#A570FF" d="m1432.96 660.485-2.606 16.336-70.35-13.161 3.759-17.541 69.197 14.366z"/></g><path fill="#FFC6B7" d="M392.238 134.582a27.84 27.84 0 0 1 .557-7.168c3.172-15.155 18.137-24.871 33.426-21.7 4.08.846 7.06 2.538 9.233 4.487 5.034 4.515-43.121 26.188-43.216 24.381z" style="display:block" transform="rotate(.183 -182253.553 312299.519)"/><path fill="#EE9583" d="M404.942 119.172c5.947-7.414 11.462-9.776 16.117-6.04.85.682.993 1.938.319 2.804a1.942 1.942 0 0 1-2.757.333c-2.469-1.981-5.872-.523-10.64 5.42a1.942 1.942 0 0 1-2.762.291 2.018 2.018 0 0 1-.277-2.808zm-7.456-4.456c3.258.67 6.439-1.349 7.106-4.511.667-3.162-3.654-11.853-3.654-11.853l-.905.784c-2.011 1.78-6.716 6.163-7.239 8.641-.667 3.162 1.434 6.268 4.692 6.939z" style="display:block" transform="rotate(1.631 -19570.916 35256.898)"/><path fill="#A570FF" d="M317.487 151.331c14.939-40.032 33.041-127.467 89.887-122.518.776.068 3.649.867 4.109 1.615 6.887 11.194-19.416 96.25-23.947 117.645-.547 2.583-2.975 3.862-5.614 3.912-18.096.34-50.199-.342-64.435-.654zM428.486 34.052c17.261 6.726 29.208 23.333 28.949 47.181 0 0-21.118-3.807-24.296-4.616-19.367-4.178-23.635-21.138-23.496-41.2l-7.019-6.382c8.329-.365 18.488 2.143 25.862 5.017z" style="display:block" transform="rotate(1.631 -19355.791 34755.6)"/></g></g><g mask="url(#az)" style="display:block"><g clip-path="url(#aA)"><path fill="#E6A000" d="M0-59.292c32.723 0 59.292 26.569 59.292 59.292S32.723 59.292 0 59.292-59.292 32.723-59.292 0-32.723-59.292 0-59.292z" style="display:block" transform="matrix(.38973 .12663 -.0618 .19021 1493.225 685.26)"/><g style="display:block"><path fill="#FFC700" d="M1479.054 669.314c9.753-2.106 24.531 2.008 33.007 9.188 8.475 7.18 7.44 14.708-2.315 16.814-9.753 2.106-24.531-2.007-33.007-9.188-8.475-7.18-7.439-14.708 2.315-16.814z"/><path fill="#FFE700" d="M1506.04 676.633a28.068 28.068 0 0 1 3.133 2.286c1.821 1.542 3.122 3.104 3.912 4.604.165.313-.197.356-.652.456-4.6 1.008-22.786 4.933-25.267 5.457-.34.072-.928.213-1.803-.188-2.292-1.052-4.25-2.435-5.976-3.898a19.501 19.501 0 0 1-2.538-2.554c-.142-.175-.415-.45.61-.672 4.43-.957 20.728-4.438 26.91-5.773.817-.177 1.297.045 1.672.282zm-24.7-5.462c5.383-1.163 12.583-.078 18.92 2.509.45.184 1.581.769.25 1.082-1.333.313-21.493 4.574-23.888 5.091-1.403.303-1.725-.438-1.795-.671-1.11-3.721 1.123-6.847 6.512-8.011z"/></g><path fill="#E6A000" d="M0-59.292c32.723 0 59.292 26.569 59.292 59.292S32.723 59.292 0 59.292-59.292 32.723-59.292 0-32.723-59.292 0-59.292z" style="display:block" transform="matrix(.4813 .24524 -.13166 .2584 1514.025 734.632)"/><g style="display:block"><path fill="#FFC700" d="M1499.117 709.767c13.434-1.32 31.865 7.007 41.167 18.597 9.302 11.59 5.953 22.057-7.48 23.377-13.434 1.32-31.865-7.007-41.167-18.597-9.302-11.59-5.953-22.057 7.48-23.377z"/><path fill="#FFE700" d="M1532.827 724.7a34.675 34.675 0 0 1 3.535 3.763c1.998 2.49 3.304 4.919 3.953 7.173.136.47-.354.47-.98.534-6.34.643-31.386 3.102-34.8 3.422-.468.043-1.283.143-2.332-.573-2.75-1.876-4.97-4.164-6.865-6.525-1.101-1.373-1.992-2.727-2.679-4.043-.142-.271-.43-.707.982-.846 6.102-.6 28.537-2.752 37.053-3.588 1.125-.111 1.7.283 2.133.682zm-31.18-11.92c7.415-.728 16.636 2.03 24.322 6.762.546.337 1.887 1.356.046 1.572-1.841.217-29.584 2.815-32.882 3.14-1.932.19-2.162-.914-2.193-1.255-.487-5.449 3.284-9.489 10.706-10.218z"/></g><path fill="#E6A000" d="M0-59.292c32.723 0 59.292 26.569 59.292 59.292S32.723 59.292 0 59.292-59.292 32.723-59.292 0-32.723-59.292 0-59.292z" style="display:block" transform="matrix(.6486 .38971 -.22476 .37406 1500.135 794.898)"/><g style="display:block"><path fill="#FFC700" d="M1482.475 757.503c19.29-1.18 44.282 12.171 55.821 29.82 11.54 17.65 5.256 32.914-14.034 34.095-19.29 1.18-44.282-12.171-55.821-29.82-11.54-17.65-5.256-32.914 14.034-34.095z"/><path fill="#FFE700" d="M1528.227 781.484a46.427 46.427 0 0 1 4.478 5.761c2.48 3.791 3.983 7.453 4.578 10.82.125.703-.572.674-1.472.732-9.107.587-45.072 2.785-49.973 3.061-.67.038-1.843.139-3.23-.98-3.636-2.926-6.46-6.434-8.81-10.029-1.367-2.09-2.437-4.14-3.222-6.123-.162-.409-.509-1.069 1.52-1.193 8.761-.536 40.97-2.43 53.198-3.18 1.616-.098 2.376.517 2.933 1.131zm-42.595-19.386c10.65-.651 23.358 3.948 33.597 11.378.727.528 2.484 2.11-.165 2.324-2.648.214-42.467 2.464-47.203 2.754-2.775.17-2.942-1.473-2.935-1.979.099-8.074 6.049-13.825 16.706-14.477z"/></g><path fill="#E6A000" d="M0-59.292c32.723 0 59.292 26.569 59.292 59.292S32.723 59.292 0 59.292-59.292 32.723-59.292 0-32.723-59.292 0-59.292z" style="display:block" transform="matrix(.68536 .4799 -.32116 .45866 1420.606 831.336)"/><g style="display:block"><path fill="#FFC700" d="M1406.454 784.874c22.482-1.404 49.164 15.042 59.597 36.735 10.432 21.692.663 40.415-21.819 41.82-22.482 1.404-49.164-15.043-59.597-36.735-10.432-21.692-.663-40.416 21.819-41.82z"/><path fill="#FFE700" d="M1455.376 814.418a47.284 47.284 0 0 1 4.228 7.082c2.24 4.66 3.377 9.157 3.511 13.292.028.863-.772.826-1.822.895-10.618.7-52.534 3.315-58.242 3.643-.78.044-2.152.165-3.572-1.21-3.72-3.602-6.406-7.914-8.531-12.332-1.236-2.57-2.135-5.088-2.716-7.525-.12-.502-.412-1.313 1.952-1.46 10.21-.638 47.738-2.89 61.989-3.78 1.883-.118 2.66.639 3.203 1.395zm-46.03-23.896c12.412-.776 26.34 4.9 36.949 14.044.754.65 2.524 2.596-.572 2.852-3.095.257-49.473 2.927-54.992 3.272-3.235.202-3.157-1.815-3.067-2.436 1.442-9.91 9.261-16.956 21.683-17.732z"/></g><path fill="#E6A000" d="M0-59.292c32.723 0 59.292 26.569 59.292 59.292S32.723 59.292 0 59.292-59.292 32.723-59.292 0-32.723-59.292 0-59.292z" style="display:block" transform="matrix(.81915 .57358 -.43018 .61436 1303.57 843.462)"/><g style="display:block"><path fill="#FFC700" d="M1289.189 784.783c28.033-3.338 60.076 16.103 71.57 43.422 11.493 27.32-1.915 52.173-29.948 55.511-28.033 3.339-60.076-16.102-71.57-43.422-11.493-27.32 1.915-52.173 29.948-55.511z"/><path fill="#FFE700" d="M1347.981 819.638a53.725 53.725 0 0 1 4.773 8.863c2.47 5.869 3.577 11.603 3.463 16.936-.023 1.113-1.016 1.12-2.325 1.28-13.243 1.624-65.508 7.844-72.623 8.654-.973.11-2.685.36-4.357-1.32-4.378-4.402-7.424-9.79-9.765-15.355-1.362-3.236-2.308-6.43-2.865-9.538-.115-.64-.423-1.669 2.524-2.02 12.733-1.516 59.52-6.969 77.29-9.085 2.347-.28 3.261.645 3.885 1.585zm-55.58-27.754c15.475-1.843 32.399 4.545 44.963 15.641.892.788 2.96 3.183-.904 3.724-3.864.542-61.677 7.135-68.56 7.954-4.032.48-3.8-2.13-3.645-2.939 2.463-12.903 12.658-22.536 28.146-24.38z"/></g></g></g><path fill="none" stroke="#9DEEC7" stroke-width="13" d="M396.003 355.089c-84.82 7.601-163.41 13.29-252.041 16.588-15.917.592-33.228-11.412-36.908-42.619-14.53-123.235-31.678-302.891-47.058-481.524-2.828-32.845 23.041-69.646 70.892-70.091 112.027-1.042 349.193-14.511 455.264-10.36" style="display:block" transform="rotate(-145 914.887 215.665) scale(.5)"/></g><g clip-path="url(#aM)" style="display:block" transform="matrix(-1 0 0 1 1976 -43.5)"><g style="display:block"><path fill="none" stroke="#CC348D" stroke-linecap="round" stroke-miterlimit="10" stroke-width="23" d="M1750.859 386.039c-.686-15.147 30.472-14.354 47.564 3.637"/><path fill="#C6775C" d="M1766.006 385.353c.379 8.365-6.096 15.453-14.461 15.832-8.366.379-15.454-6.095-15.833-14.46-.379-8.366 6.095-15.455 14.46-15.834 8.366-.379 15.455 6.096 15.834 14.462z"/><path fill="#5EC6FF" d="M1784.61 417.328c-3.4 9.29-18.7 12.233-34.175 6.572-15.475-5.662-25.263-17.785-21.864-27.076 3.399-9.291 19.546-24.983 38.389-18.09 18.978 6.944 21.049 29.302 17.65 38.594z"/><path fill="#0084C2" d="M1784.61 417.328c-3.4 9.29-18.7 12.233-34.175 6.572-15.475-5.662-25.263-17.785-21.864-27.076 3.399-9.291 18.7-12.233 34.174-6.572 15.475 5.662 25.264 17.784 21.865 27.076z"/><path fill="#FFCC76" d="M1762.745 390.252c-8.778-3.212-17.498-3.652-24.023-1.738-.512 5.798-2.39 13.08-2.727 14.878-.025.12-.102.23-.129.351-1.403 6.494 1.52 12.875 7.757 14.827 4.517 1.415 9.236-.027 12.242-3.295a13.202 13.202 0 0 0 6.303 4.264c6.997 2.191 14.446-1.704 16.637-8.702 1.064-3.4 1.687-5.018 3.055-6.93-3.824-5.475-10.606-10.542-19.115-13.655z"/></g><g mask="url(#aN)" style="display:block"><path fill="none" stroke="#FFCC76" stroke-linecap="round" stroke-miterlimit="10" stroke-width="4.148" d="M1808.974 313.028c-15.332 5.034-37.303 26.394-28.544 31.79 8.758 5.397 20.778-23.926 44.354-15.588m-19.552 7.313c-11.942 5.3-21.077 18.742-34.044 38.193m35.56-32.213c-5.473 4.707-8.323 7.086-15.153 16.17-6.83 9.083-15.23 17.75-19.62 29.751"/></g><path fill="#0084C2" d="M732.862-124.382c4.759-25.473 29.266-42.264 54.739-37.505s42.265 29.265 37.506 54.738-29.266 42.265-54.739 37.506-42.265-29.266-37.506-54.739z" style="display:block" transform="rotate(1.297 -24711.168 45790.47)"/><g mask="url(#aO)" style="display:block"><path fill="#006AAD" d="M1856.471 507.314c-17.231-.493-34.38-2.073-50.534-17.666l-6.933.844c19.44 20.013 40.238 21.841 51.742 21.6a47.202 47.202 0 0 0 5.725-4.778z"/><path fill="#C6775C" d="M1790.251 419.225c3.527-16.244 19.504-26.593 35.769-23.172 16.34 3.438 26.8 19.47 23.364 35.81l-7.501 35.656c-.854 4.057-3.533 7.5-7.275 9.283-15.415 7.346-27.529 12.499-32.104 14.405a3.209 3.209 0 0 1-3.52-.682c-8.666-8.69-14.117-18.908-16.596-24.224-1.092-2.342-1.277-4.975-.728-7.502l8.591-39.574z"/><path fill="none" stroke="#FFF" stroke-linecap="round" stroke-width="20.813" d="m1791.683 461.049 2.12-8.554m21.046 13.955 1.31-6.232"/><path fill="none" stroke="#3D3D3D" stroke-linecap="round" stroke-width="9.4" d="M1813.048 463.916s-.966 2.554-1.023 5.085m-19.323-11.16s-.328 3.306-1.584 5.642"/><path fill="#FFF" d="M1787.436 461.557c1.763.776 2.753 3.34 1.849 5.068-3.725 7.485-9.562-7.275-1.85-5.068zm19.854 6.562c2.073.47 3.519 2.377 2.822 4.598-2.39 4.819-6.552-3.79-2.822-4.598z"/><path fill="#C6775C" d="M1794.372 449.928a6.295 6.295 0 1 1 12.277 2.778 6.295 6.295 0 0 1-12.277-2.778z"/></g><path fill="none" stroke="#3D3D3D" stroke-linecap="round" stroke-width="46.998" d="M806.508-160.321c-17.756 5.031-37.78.251-40.643-7.859" style="display:block" transform="translate(1032.77 588.624)"/><path fill="#FFF" d="m756.151-159.828.792-1.802a5.805 5.805 0 0 1 10.63 4.672l-.792 1.802a5.805 5.805 0 0 1-10.63-4.672z" style="display:block" transform="translate(1032.895 588.749)"/><path fill="#CC348D" d="M745.232-224.137c-.304-28.44 22.505-51.741 50.945-52.045 28.44-.304 51.741 22.506 52.045 50.946.304 28.44-22.505 51.74-50.945 52.044-28.44.304-51.741-22.505-52.045-50.945z" style="display:block" transform="rotate(-1.297 27350.95 -45517.09)"/><path fill="none" stroke="#CC348D" stroke-linecap="round" stroke-linejoin="round" stroke-width="23" d="M827.747-199.904s8.423 5.576 6.975 10.607c-3.49 12.125-31.075 15.5-31.075 15.5" style="display:block" transform="rotate(-1.297 27350.95 -45517.09)"/><g mask="url(#aP)" style="display:block"><path fill="#0084C2" d="M1763.319 352.027c3.012-24.766 19.345-48.583 61.15-49.848 41.804-1.264 80.353 16.967 72.5 42.053-6.114 19.536-27.286 34.86-73.782 32.022-44.353-2.707-60.186-21.614-59.868-24.227z"/><path fill="none" stroke="#00448E" stroke-width="11" d="M1763.319 352.027c3.012-24.766 19.345-48.583 61.15-49.848 41.804-1.264 80.353 16.967 72.5 42.053-6.114 19.536-27.286 34.86-73.782 32.022-44.353-2.707-60.186-21.614-59.868-24.227z"/></g><g style="display:block"><path fill="none" stroke="#0084C2" stroke-linecap="round" stroke-linejoin="round" stroke-width="20" d="M1823.332 325.938s-33.232-15.105-42.848-24.61c3.463-11.69 20.862-27.505 30.047-37.686"/><path fill="none" stroke="#CC348D" stroke-linecap="round" stroke-linejoin="round" stroke-width="14" d="M1831.733 256.477c-1.606-5.786-5.5-12.577-9.084-15.847"/></g><g style="display:block"><path fill="none" stroke="#0084C2" stroke-linecap="round" stroke-linejoin="round" stroke-width="20" d="M1823.577 325.888s-55.77 2.169-97.402-21.69"/><path fill="none" stroke="#CC348D" stroke-linecap="round" stroke-linejoin="round" stroke-width="14" d="M1709.96 286.975c-2.408 2.36-8.272 9.146-11.549 14.587"/></g><g style="display:block"><path fill="none" stroke="#DAAF83" stroke-linecap="round" stroke-linejoin="round" stroke-width="5" d="m1867.919 429.192-59.68-4.652m55.369 14.412-55.535-12.14"/><path fill="none" stroke="#C6775C" stroke-linecap="round" stroke-linejoin="round" stroke-width="9" d="m1835.475 427.096-9.83 6.53"/><path fill="#C6775C" d="m1837.057 431.512 4.915-3.357a8.535 8.535 0 0 0 2.235-11.861l-2.97-4.348a8.534 8.534 0 0 0-11.861-2.235l-4.915 3.358a8.534 8.534 0 0 0-2.234 11.86l2.969 4.348a8.536 8.536 0 0 0 11.861 2.235z"/></g></g><g clip-path="url(#bc)" style="display:block" transform="matrix(-1 0 0 1 1916 -23.5)"><g style="display:block"><path fill="none" stroke="#FFC6B7" stroke-linecap="round" stroke-linejoin="round" stroke-width="12" d="M1464.603 594.955c-2.763-2.166-12.81-4.036-19.249-3.783m-5.526 7.802c7.066.724 17.037.844 22.201 2.698m-20.472 11.67c10.238-4.582 17.317-5.291 22.475-4.194m-3.122 16.833s3.222-9.065 9.283-16.35"/><path fill="none" stroke="#FFC6B7" stroke-linecap="round" stroke-linejoin="round" stroke-width="36" d="M1491.617 593.68c-10.043 2.539-14.715 3.917-23.1 7.275"/><path fill="none" stroke="#33E3FF" stroke-linecap="round" stroke-linejoin="round" stroke-width="36" d="M1509.374 589.837c-8.925.993-19.911 4.194-28.512 6.948"/></g><path fill="#33E3FF" d="M632.11-113.808c10.897-27.659-27.424-59.245-59.226-46.321-29.13 10.998-43.846 22.406-43.846 22.406-12.918 8.487 82.039 97.759 87.973 72.376 0 0 4.812-24.04 15.098-48.461z" style="display:block" transform="rotate(-.12 277822.647 -474985.115)"/><path fill="none" stroke="#393939" stroke-linecap="round" stroke-width="27" d="m683.25 34.5 4.25 3.5" style="display:block" transform="rotate(-22.516 2498.756 -2149.003)"/><path fill="none" stroke="#393939" stroke-linecap="round" stroke-linejoin="round" stroke-width="23" d="m613.75 94-8.25 3.75" style="display:block" transform="rotate(-19.631 2658.64 -2473.342)"/><path fill="#FFC7B8" d="M552.811-154.957c-14.873-8.982-34.962-11.237-52.179-1.891l-28.256 15.339a51.11 51.11 0 0 0-25.616 34.316l-7.98 37.63C434.57-49.714 440-30 458.986-17.428 477.972-4.856 510.5 12 528.501 43.852c6.897 12.204 42.974 11.603 54.934 7.15l38.691-9.376A38.335 38.335 0 0 0 651.93 8.839l6.319-51.72c-.568-6.318-6.973-19.296-11.519-26.102C621-107.5 590-132.5 552.811-154.957z" style="display:block" transform="rotate(-4.598 8166.391 -12018.619)"/><path fill="#EE9583" d="M523.147-6.062c2.236 3.145 5.699 3.51 8.324 1.644 2.625-1.866 3.418-5.255 1.182-8.401-2.236-3.145-9.483-4.798-10.202-4.287-.718.51-1.54 7.899.696 11.044z" style="display:block" transform="rotate(-4.598 8160.533 -12016.625)"/><g style="display:block"><path fill="#FFF" d="M1490.12 546.076c-7.765-4.864-19.967-3.684-25.915 2.507-4.913 5.113-3.794 11.923 2.619 15.94l9.61 6.023c7.765 4.864 19.967 3.683 25.915-2.507 4.913-5.114 3.794-11.924-2.618-15.942l-9.612-6.02zm31.156-22.554c-7.734-4.846-18.994-3.08-24.924 3.909-5.723 6.744-4.336 15.854 3.128 20.53l8.792 5.509c7.734 4.846 18.996 3.078 24.925-3.909 5.724-6.745 4.335-15.854-3.13-20.53l-8.791-5.509z"/><path fill="#FFC7B8" d="M1536.181 533.26c-5.42 4.329-11.761 17.11-13.493 26.385l16.937-13.528c1.11-6.089 1.976-17.185-3.444-12.856z"/><path fill="#EE9583" d="M1531.857 551.977a2.223 2.223 0 0 0-1.855 2.534c.346 2.238.292 4.423-.39 6.485-.674 2.04-2.012 4.1-4.45 6.038a2.219 2.219 0 0 0-.356 3.118 2.22 2.22 0 0 0 3.12.358c3.06-2.432 4.933-5.192 5.903-8.118.96-2.903.983-5.833.562-8.56a2.221 2.221 0 0 0-2.534-1.855z"/><path fill="#4B4B4B" d="M1506.817 535.895a4.246 4.246 0 0 0 1.99 3.249c1.975 1.238 4.556.677 5.763-1.25a4.07 4.07 0 0 0 .311-.605l4.862 2.903c3.483 2.08 4.174 6.265 1.548 9.36-2.638 3.11-7.627 3.939-11.127 1.849l-5.911-3.53c-3.483-2.08-4.176-6.265-1.55-9.36 1.07-1.262 2.526-2.147 4.114-2.616zm-15.898 15.33c.168.088.331.185.492.285l5.09 3.187c3.757 2.354 4.453 6.332 1.637 9.356-2.45 2.631-7.596 3.157-10.867 1.11l-7.312-4.582c-3.118-1.952-3.697-5.252-1.36-7.763 1.041-1.118 2.493-1.914 4.105-2.361a4.503 4.503 0 0 0 2.005 2.73c2.032 1.273 4.635.784 5.81-1.092a3.75 3.75 0 0 0 .4-.87z"/></g><g mask="url(#bd)" style="display:block"><g clip-path="url(#be)" transform="rotate(1.464 1623.566 744.757) scale(1.00759)"><g style="display:block"><path fill="#FFC7B8" d="M1531.072 472.95c5.547 1.538 10.722-2.436 11.558-8.872.835-6.437-2.985-12.9-8.532-14.438-5.547-1.538-10.722 2.436-11.557 8.872-.836 6.437 2.985 12.9 8.531 14.438z"/><path fill="#0084C2" d="M1476.51 610.578s56.633 59.035 75.738 52.288l84.852-53.299c15.31-5.119 16.846-112.947 8.034-122.726l-46.156-33.193-.192-.139-6.05-4.349-7.1 111.687-109.126 49.731z"/><path fill="#33E3FF" d="M1599.227 458.011c-6.193-5.901-32.26-23.432-32.26-23.432a89.37 89.37 0 0 1 2.122 5.235c15.96 43.123 4.178 106.142 2.463 109.162-15.069 26.531-97.039 53.239-102.455 51.97l17.197 15.416c27.382 2.193 90.182-24.41 102.765-40.754 10.975-14.252 13.347-94.227 10.168-117.597z"/></g><path fill="url(#bf)" d="M542.287-73.808a20.443 20.443 0 0 0-21.744-1.686l-66.346 34.981c-4.69 2.473-5.503 8.833-1.52 12.333 4.619 4.057 18.803 15.086 20.93 16.441 2.539 1.618 3.641 4.492 3.329 7.164L455.999 7.558C439.513-4.27 412.084-46.23 416.293-66.078c0 0 3.246-69.461 16.083-76.429 0 0 91.517-46.369 107.436-34.95l29.674 16.915 1.147.654-.456 92.437a8.424 8.424 0 0 1-7.201 8.168c-.631.092-20.689-14.525-20.689-14.525z" style="display:block" transform="rotate(-6.1 6395.181 -8836.617)"/></g></g><path fill="#FF9500" d="M471.026-93.178c12.861-.061 20.271-10.927 20.212-24.286-.06-13.36-7.567-24.151-20.427-24.09-12.861.063-21.458 10.933-21.4 24.292.06 13.36 8.754 24.146 21.615 24.084zM468.88-56.55c14.461-1.489 24.88-15.348 23.271-30.952-1.609-15.606-14.636-27.05-29.097-25.56-14.461 1.49-24.88 15.347-23.272 30.952 1.61 15.606 14.637 27.05 29.098 25.56z" style="display:block" transform="rotate(17.068 -996.602 3468.086)"/><path fill="#33E3FF" d="M637.81-65.136C633.75-56 626.831-54.6 622.786-55.983c-5.465-1.15-9.63-7.729-9.02-16.257 1.234-17.26 7.984-33.01 13.266-43.535 4.773-9.512 15.718-11.975 22.54-8.794 6.779 3.161 12.82 11.1 7.698 20.625-6.02 11.194-15.4 29.672-19.46 38.808z" style="display:block" transform="rotate(-.12 281384.538 -476331.868)"/><g style="display:block"><path fill="#FFC6B7" d="M1642.514 458.006c-5.438-8.023-15.564-11.323-24.762-5.525-8.106 5.11-11.117 15.064-5.194 23.485 5.405 7.682 15.585 10.76 24.734 5.272 9.204-5.518 10.66-15.208 5.222-23.232z"/><path fill="none" stroke="#EE9583" stroke-linecap="round" stroke-width="3.796" d="M1626.594 463.046c3.231 1.761 6.21 5.681 5.954 8.177"/><path fill="none" stroke="#FFC6B7" stroke-linecap="round" stroke-linejoin="round" stroke-width="12" d="M1619.447 456.76c-.002-4.132-1.325-8.367.845-12.048m20.827-1.58c-6.473-.436-13.995 6.641-13.824 10.174m23.856-2.201c-4.246.78-15.765 3.37-15.762 9.274m17.446 3.887c-4.111-2.394-10.706-.283-12.588 4.371"/></g></g><g clip-path="url(#bn)" style="display:block" transform="matrix(-1 0 0 1 1976 -43.5)"><path fill="#58CC02" d="M303.202-41.464c15.252 94.999-16.572 140.035-80.655 155.537-84.448 20.428-144.155-35.09-168.05-85.71-18.098-38.339-23.49-98.522-23.476-110.49-1.764-42.833 9.536-88.31 48.107-105.38 17.565-7.773 35.657-10.293 49.594-4.954 21.6 8.275 30.125 13.98 38.013 17.669 4.324 2.022 127.643 78.365 136.467 133.328zm15-4c15.252 94.999-31.572 144.035-95.655 159.537-84.448 20.428-134.794-43.146-151.05-96.71C16-165.5 158.847-178.481 166.735-174.792a21.631 21.631 0 0 0 13.865 1.535c13.774-3.077 29.714-13.097 52.743-23.558 29.189-13.244 71.834 2.695 71.483 41.96 0 0 4.552 54.428 13.376 109.391z" style="display:block" transform="rotate(-1.397 25161.524 -42122.332)"/><path fill="#58CC02" d="M194.4-10.921c41.197 33.255 100.112 36.257 145.734 6.363 45.621-29.893 66.603-85.246 52.867-136.495-2.857-10.667-15.283-15.388-24.539-9.323L195.78-37.227c-9.256 6.065-9.954 19.384-1.38 26.306z" style="display:block" transform="rotate(12.422 -1924.71 5008.849)"/><path fill="#58CC02" d="M198.976.515c-26.37 45.909-80.206 70.027-133.554 58.669C12.074 47.826-27.518 3.817-33.258-48.93c-1.195-10.977 8.679-19.874 19.504-17.569L188.17-23.511C198.993-21.206 204.464-9.04 198.976.515z" style="display:block" transform="rotate(-15.216 2845.598 -3581.23)"/><path fill="none" stroke="#F49000" stroke-linecap="round" stroke-linejoin="round" stroke-width="35" d="M256.25 102.5 260 74.75" style="display:block" transform="rotate(2.123 -15136.196 28358.304)"/><path fill="none" stroke="#F49000" stroke-linecap="round" stroke-linejoin="round" stroke-width="35" d="m138 147-27-7.75" style="display:block" transform="rotate(5.644 -5338.02 10946.05)"/><g mask="url(#bp)" style="display:block"><path fill="#89E219" d="M1233.224 617.931c-.645 8.559-6.99 16.006-15.826 18.308-8.835 2.303-17.962-1.113-22.636-8.286-.973-1.493-.132-3.503 1.66-3.97l33.72-8.16c1.793-.463 3.216.327 3.082 2.108zm-57.992 14.196c-2.19 8.296-9.783 14.443-18.891 15.068-9.108.624-17.465-4.428-20.757-12.348-.686-1.649.506-3.47 2.354-3.596l34.475-2.365c1.848-.127 3.275 1.515 2.819 3.241zm35.21 18.97c-1.394 8.373-8.372 15.15-17.378 16.64-9.007 1.487-17.803-2.681-21.831-10.159-.838-1.554.177-3.462 2.004-3.763l33.817-5.838c1.827-.305 3.679 1.377 3.388 3.12zm22.334-68.592c-22.266 1.506-42.338-10.428-52.255-28.884-8.175.522-14.102.892-17.77 1.13-6.516.425-11.853.78-16 1.061-5.442 19.542-18.112 33.47-35.557 34.954-20.554 1.749-41.338-21.954-44.04-52.094-2.042-22.755-2.406-33.999-.9-46.262 1.616-13.16 6.43-22.67 13.831-29.585.32-11.91 9.203-22.08 13.592-22.339 2.47-.145 2.4.661 2.334 14 4.16-17.86 12.923-23.58 16.907-26.777 4.99-4 10.977-6.091 11.474 2.125.248 3.908 4.201 47.18 28.997 47.776 2.34.056 3.84.04 6.787-.29 15.362-1.718 44.097-34.546 55.276-48.046 6.955-8.399 11.5-6.894 13.287-4.274 4.07 5.948 5.594 12.217 4.78 18.613l9.328-12.042c1.836-2.358 5.437-2.264 7.122.198 4.385 6.404 6.262 14.024 5.608 21.519 14.902 8.957 25.323 24.819 26.593 43.482l1.834 27.067c2.058 30.343-20.877 56.612-51.228 58.668z"/></g><g style="display:block"><path fill="#F49000" d="M1187.4 552.066c-.72-10.597-9.892-18.605-20.49-17.886-10 .677-17.802 8.922-17.928 18.944l-.254 29.274c-.151 11.938 9.917 21.466 21.828 20.658 11.267-.763 19.78-10.516 19.017-21.783l-2.174-29.207z"/><path fill="#B16900" d="M1180.609 554.124c.137-8.207-6.775-14.774-14.964-14.22-7.268.494-12.946 6.47-13.067 13.753l-.357 28.157c-.137 8.207 6.775 14.774 14.964 14.219 7.267-.493 12.946-6.469 13.067-13.752l.357-28.157z"/><path fill="#FFB8D1" d="M1180.54 565.321c-.169.008-.338.017-.506.029-12.624.856-22.164 11.783-21.308 24.407.107 1.582.373 3.116.78 4.587a13.93 13.93 0 0 0 7.684 1.689c7.267-.493 12.946-6.47 13.067-13.753l.282-16.959z"/><path fill="#FFC200" d="M1136.036 555.762c-.125.742.32 1.455 1.03 1.706l10.243 2.881 41.191-6.687c.923-.166 1.512-1.085 1.217-1.975-3.877-11.733-15.312-19.96-28.21-19.087-13.053.885-23.382 10.804-25.47 23.162z"/><path fill="#FFDE00" d="M1165.431 544.09c2.105.786 4.39-.356 5.13-2.449.742-2.092-.31-4.535-2.447-5.13-4.174-1.162-9.299-1.048-13.379.813-2.02.922-2.961 3.26-2.071 5.294.89 2.033 3.244 2.927 5.293 2.071 1.757-.734 5.37-1.386 7.474-.6z"/></g><g style="display:block"><path fill="#FFF" d="M1265.468 521.922c1.43 21.112-14.524 39.385-35.635 40.816-21.112 1.431-39.386-14.522-40.817-35.634l-1.458-21.502c-1.43-21.112 14.524-39.385 35.635-40.816 21.112-1.431 39.386 14.522 40.817 35.634l1.458 21.502zm-129.426 8.773c1.431 21.111-10.532 39.115-26.722 40.212-16.187 1.098-30.472-15.126-31.903-36.238l-1.458-21.502c-1.43-21.112 10.534-39.115 26.72-40.212 16.19-1.097 30.474 15.127 31.905 36.238l1.458 21.502z"/><path fill="#4B4B4B" d="M1101.615 530.82c.77 9.893 7.727 17.413 15.542 16.804 7.824-.61 13.538-9.118 12.768-19l-1.494-19.106c-12.495 6.497-20.336-10.355-11.86-16.631-.662-.273-2.573-.394-3.691-.173-9.631 1.938-13.554 11.558-12.414 23.387.906 9.482 1.15 14.72 1.15 14.72zm94.806-6.87c.34 9.916 8.65 17.672 18.566 17.332 9.907-.33 17.674-8.64 17.333-18.557l-.654-19.144c-13.496 5.377-19.138-9.547-14.994-17.11a19.016 19.016 0 0 0-3.563-.233c-1.91.07-3.746.428-5.45 1.045-9.808 4.09-11.937 15.082-11.738 21.91.2 6.829.5 14.756.5 14.756z"/><path fill="#8EDF00" d="M1102.83 465.603c-25.961 2.144-30.068 15.667-31.013 23.78-1.992 17.095 2.265-1.013 2.265-1.013 16.491-25.781 47.57-25.017 65.241 11.563 4.042-20.433-.357 1.175-2.726-13.437-2.37-14.613-15.27-22.42-33.768-20.893zm-18.731 107.86c6.127 2.885 8.42 7.112 23.02 9.812 14.599 2.7 10.957 2.791 13.21 3.122-3.77-2.065-29.85-9.801-36.23-12.934zm139.52-113.225c-30.952.01-40.949 20.901-40.237 38.124.711 17.223.383 1.25.383 1.25 7.192-49.041 59.694-49.073 81.132-18.195-.206-8.047 2.983 21.58 1.231 6.812-1.752-14.77-20.456-27.998-42.51-27.99zm-3.761 115.172c-12.653-1.748-16.66-2.457 7.315 1.78 19.305 3.412 31.764-5.552 40.719-16.795-5.503 6.458-25.656 16.162-48.034 15.015z"/></g></g><g clip-path="url(#bz)" style="display:block" transform="matrix(-1 0 0 1 1976 -43.5)"><path fill="#FFCBA3" d="M201.172-329.49c6.904 0 12.502 5.657 12.502 12.636 0 6.98-5.598 12.637-12.502 12.637-6.904 0-12.501-5.658-12.501-12.637s5.597-12.637 12.501-12.637z" style="display:block" transform="rotate(.371 -73403.657 155546.427)"/><path fill="#FFB100" d="M216.597-322.139c-8.848-3.037-14.12 1.125-16.235 6.08-2.116 4.954-.921 12.756 7.392 15.954 8.314 3.199 26.45 12.65 37.79 20.43 4.35 2.986 12.227 2.609 16.205-3.956 3.977-6.564-.226-13.354-4.313-16.564-8.265-6.492-31.99-18.907-40.839-21.944z" style="display:block" transform="rotate(.371 -73403.907 155623.693)"/><path fill="#3D3D3D" d="M179.119-308.761c0 9.562-7.753 17.314-17.315 17.314-9.562 0-17.314-7.752-17.314-17.314 0-9.562 7.752-17.315 17.314-17.315 9.562 0 17.315 7.753 17.315 17.315zm-23.117-14.922c-13.51-11.937-14.787-32.569-2.85-46.08l22.652-26.694c11.937-13.512 32.567-14.788 46.08-2.85 14.325 12.657 14.76 34.86.938 48.067l-.997.597a94.765 94.765 0 0 0-10.584 11.98l-7.422 9.987c-11.403 15.344-33.49 17.65-47.817 4.993z" style="display:block" transform="rotate(.371 -90338.522 159818.428)"/><path fill="#E89665" d="M170.119-403.653c2.087.944 3.005 3.418 2.051 5.527-.954 2.109-6.986 5.386-6.986 5.386s-1.522-6.695-.568-8.804c.954-2.108 3.417-3.052 5.503-2.109z" style="display:block" transform="rotate(-2.601 13631.503 -22813.616)"/><path fill="#FFCBA3" d="M219.585-404.105c-21.544-12.439-49.093-5.057-61.532 16.488-12.439 21.545-5.057 49.093 16.487 61.532l29.192 16.854 45.045-78.02-29.192-16.854z" style="display:block" transform="rotate(.371 -90337.738 159740.029)"/><g style="display:block"><path fill="#FFB100" d="M1222.095 204.227c-20.318 27.334-21.509 91.1 47.294 114.492l35.578-57.267 33.995-61.706c-52.671-29.416-91.075-30.217-116.867 4.48z"/><path fill="#FFF" d="M1257.657 198.824c2.083 2.081 1.828 5.712-.568 8.11-2.397 2.397-6.026 2.652-8.11.57-2.082-2.08-1.827-5.711.57-8.109 2.396-2.397 6.026-2.653 8.108-.571zm-31.17-7.922c23.98 11.346 44.01-9.41 37.368-12.732-3.964.217-9.547 2.15-14.3 3.69-9.708-1.08-18.029 3.811-23.069 9.042zm-15.385 30.704c17.574 6.883 41.515-21.487 23.096-32.55-5.05 3.03-18.627 15.067-23.096 32.55z"/><path fill="#FF9500" d="M1286.908 249.032c-19.276 32.894-27.327 63.988-17.946 69.486 9.382 5.498 32.588-16.721 51.864-49.615 19.276-32.894 27.323-64.007 17.942-69.505-9.382-5.497-32.584 16.74-51.86 49.634zm-37.303-67.175c16.828 1.01 38.82 8.498 54.996 16.812a7.99 7.99 0 0 0 8.16-.524c2.887-1.967 7.075-4.523 11.512-6.136-30.467-14.677-54.956-18.143-74.668-10.152zm-34.985 36.331c-10.187 26.986-5.715 67.954 34.335 91.326-3.963-14.788 8.106-46.28 13.879-60.052 1.603-3.823.034-8.238-3.632-10.173-9.956-5.256-29.394-15.221-44.582-21.1z"/></g><path fill="#FFCBA3" d="M208.585-408.855c-7.835-3.645-36.835-2.645-50.532 21.238-12.377 21.58-5.057 49.093 16.487 61.532 0 0 2.21 1.585 4.192 2.604C165-376.5 201.25-403.25 213.777-407.001c-1.277-.999-5.192-1.854-5.192-1.854z" style="display:block" transform="rotate(.371 -90338.272 159741.162)"/><g style="display:block"><path fill="#9F9F9F" d="M1188.47 210.002c-5.411 16.34-1.204 34.923 11.079 46.876 4.122-18.104-.106-38.17-11.079-46.876z"/><path fill="#B23232" d="m1215.401 197.416 1.527 3.168a5.998 5.998 0 0 1-2.803 8.01 6.003 6.003 0 0 1-8.013-2.803l-1.527-3.169a5.998 5.998 0 0 1 2.804-8.009 6.003 6.003 0 0 1 8.012 2.803z"/></g><g mask="url(#bA)" style="display:block"><path fill="#F14C4C" d="M1211.05 202.815a6.502 6.502 0 0 1 5.66 3.383 6 6 0 0 1-10.602-.395l-.235-.485a6.496 6.496 0 0 1 5.176-2.503z"/></g><g mask="url(#bB)" style="display:block"><path fill="#FFF" d="M1194.214 179.135c2.616-4.648 5.82-7.806 7.156-7.054l1.798 1.038c1.274.717.066 5.202-2.454 9.68-2.52 4.477-5.727 7.838-7.001 7.122-.049-.028-1.767-.98-1.816-1.009-1.336-.752-.299-5.13 2.317-9.777zm-11.837 21.169c2.615-4.648 5.819-7.806 7.155-7.054l1.8 1.038c1.273.717.065 5.202-2.455 9.68-2.52 4.477-5.727 7.838-7.001 7.121l-1.816-1.008c-1.336-.752-.3-5.13 2.317-9.777z"/><path fill="#4B4B4B" d="M1184.15 198.299c1.253-2.227 2.788-3.74 3.428-3.38.024.014 1.242.623 1.265.636.61.344.03 2.494-1.176 4.638-1.207 2.145-2.744 3.755-3.354 3.411-.023-.013-1.25-.608-1.273-.622 1.984-2.442 2.605-5.028 1.11-4.683zm9.233-16.574c1.253-2.227 2.788-3.74 3.428-3.38.024.014 1.242.623 1.265.636.61.344.031 2.493-1.176 4.638-1.207 2.145-2.744 3.755-3.354 3.412-.023-.013-1.25-.609-1.273-.622 1.984-2.443 2.605-5.03 1.11-4.684z"/><path fill="none" stroke="#E89665" stroke-linecap="round" stroke-linejoin="round" stroke-width="3" d="m-50.353 5.574 8.892 4.251-8.985 3.287m74.943-6.57L17.39 8.811l8.055 3.69" transform="matrix(.42649 -.7578 .21787 .12261 1196.064 181.27)"/></g><path fill="#FFCBA3" d="M200.948-329.386c6.915 0 12.52 5.666 12.52 12.656s-5.605 12.655-12.52 12.655c-6.914 0-12.52-5.666-12.52-12.655 0-6.99 5.606-12.656 12.52-12.656z" style="display:block" transform="rotate(.371 -82497.054 148176.807)"/><path fill="#FFB100" d="M214.423-325.16c-9.251-1.49-13.731 3.52-14.973 8.771-1.242 5.251 1.248 12.743 10 14.483 8.75 1.74 28.31 7.968 40.813 13.684 4.8 2.193 12.498.476 15.294-6.674 2.796-7.15-2.51-13.122-7.088-15.586-9.257-4.982-34.795-13.188-44.046-14.678z" style="display:block" transform="rotate(.371 -82574.82 148331.08)"/><path fill="none" stroke="#FF9500" stroke-linecap="round" stroke-linejoin="round" stroke-width="12" d="M370.75-299.25s8.236 1.26 12 6.25" style="display:block" transform="rotate(.531 -57444.526 103467.62)"/><path fill="none" stroke="#FF9500" stroke-linecap="round" stroke-linejoin="round" stroke-width="12" d="M349-258.75s6.983 6.004 8 12.25" style="display:block" transform="rotate(.066 -469282.945 837062.75)"/><g style="display:block"><path fill="none" stroke="#00BDFF" stroke-linecap="round" stroke-linejoin="round" stroke-width="7" d="m1167.453 161.903 6.643-3.086m-1.078 13.494 5.767-2.967m-6.719 9.546c7.972-1.423 11.954 9.927 20.969.3"/><path fill="#00BDFF" d="M1119.312 190.374c-2.099.428-3.784-1.725-2.867-3.66l2.544-5.369 6.145 7.844-5.822 1.185zm-4.193-8.991c-1.744-1.244-1.32-3.945.72-4.593l5.662-1.8-1.545 9.842-4.837-3.45zm24.35 14.52c-9.825 2.101-19.495-4.16-21.597-13.985-2.102-9.827 4.16-19.496 13.986-21.597 0 0 11.62-2.397 19.92-5.967 8.3-3.57 19.909-1.028 24.482 7.919 4.573 8.946.665 19.67-7.92 24.48-8.583 4.81-28.871 9.15-28.871 9.15z"/><path fill="#FFF" d="M1138.781 187.722a6.173 6.173 0 0 1-7.713-4.088l-2.162-7.04a6.173 6.173 0 0 1 11.801-3.624l2.162 7.039a6.173 6.173 0 0 1-4.088 7.713z"/><path fill="#FFA3A3" d="M1133.558 177.94c.559.275.77.963.463 1.504l-.841 1.483c-.469.826-1.698.69-1.977-.217l-.687-2.236c-.279-.908.663-1.71 1.515-1.29l1.527.756z"/><path fill="#00729A" d="M1129.31 183.237a2.274 2.274 0 1 0-4.432-1.019 2.274 2.274 0 0 0 4.432 1.02zm-1.124-3.815a2.273 2.273 0 1 0-4.433-1.016 2.273 2.273 0 1 0 4.433 1.016z"/></g></g><g clip-path="url(#bJ)" style="display:block" transform="matrix(-1 0 0 1 1916 -23.5)"><g style="display:block"><path fill="#4CC5FF" d="M1603.478 795.136c3.092-5.248 9.854-6.995 15.102-3.902l19.884 11.721c5.248 3.093 6.995 9.854 3.901 15.101l-2.983 5.062c-6.229 10.227-13.541 7.352-25.869 2.208-11.68-5.778-19.457-13.237-13.972-23.3l3.937-6.89z"/><path fill="#1CB0F6" d="M1618.48 810.166c-8.759-4.865-11.741-11.611-9.089-16.457 4.15-7.583 16.437-25.25 24.729-33.428 5.522-5.446 25.345-16.89 46.721-24.733 9.445-3.463 19.907 1.383 23.373 10.826 3.465 9.444-1.382 19.908-10.825 23.373-11.598 4.259-30.405 14.479-34.014 16.837-2.628 3.154-13.051 15.185-18.192 24.612-3.317 6.083-14.793 3.364-22.703-1.03z"/><path fill="none" stroke="#FF4B4B" stroke-linecap="round" stroke-width="12.767" d="M1588.61 833.926c10.392 2.564 21.32-2.079 21.32-2.079"/></g><g style="display:block"><path fill="#A46648" d="m1656.392 672.503 25.696 36.81c4.118 5.256 11.717 6.177 16.972 2.06 5.256-4.117 6.178-11.715 2.06-16.972l-31.194-30.812a8.103 8.103 0 1 0-13.535 8.914z"/><path fill="none" stroke="#A46648" stroke-linecap="round" stroke-linejoin="round" stroke-width="6.871" d="m1649.027 664.505 8.616 2.883m-3.135-13.798 2.316 8.409m3.638-9.527.553 10.193m5.889-6.406-1.568 6.145"/></g><g style="display:block"><path fill="#3D3D3D" d="m1721.782 645.145 26.238-18.17c9.583-6.625 22.721-4.23 29.347 5.354l6.427 9.294c6.625 9.582 4.228 22.721-5.355 29.347l-8.311 5.747c-9.583 6.626-22.722 4.229-29.348-5.354l-18.998-26.218zm9.634-5.258-15.859 44.738-26.93-10.184c-9.81-3.976-14.538-15.154-10.561-24.963l3.857-9.515c3.976-9.809 15.152-14.537 24.962-10.56l24.531 10.484zm24.76 20.796c.877 10.55-51.098 14.872-51.976 4.323l-2.818-33.872c-.877-10.548 6.963-19.812 17.512-20.689l13.774-1.146c10.55-.877 19.812 6.963 20.69 17.512l2.817 33.872z"/><path fill="#A46648" d="m1733.322 714.312-36.75-13.451c-8.215-3.008-12.946-11.623-11.075-20.17l5.23-23.895a14.638 14.638 0 0 1 10.975-10.831l27.904-6.361a19.867 19.867 0 0 1 18.24 5.104l10.985 13.72a26.795 26.795 0 0 1 4.174 26.153l-7.238 19.308c-3.318 9.079-13.368 13.746-22.445 10.423z"/><path fill="#FDB02A" d="m1761.707 688.043 1.298-3.462a26.795 26.795 0 0 0-4.174-26.154l-10.985-13.72a19.867 19.867 0 0 0-18.24-5.103l-14.488 3.303c11.35 3.093 33.04 12.484 46.59 45.136zm-46.589-45.136-13.416 3.058a14.638 14.638 0 0 0-10.974 10.831l-1.801 8.227c8.536-11.583 26.191-22.116 26.191-22.116zm.753-1.416c.21.7-.296 1.357-1.024 1.425-6.538.612-13.874-3.244-15.17-10.906-.123-.72.292-1.414 1.023-1.425 9.687-.143 13.592 5.653 15.171 10.906zm-.643 1.363a1.102 1.102 0 0 1-1.424-1.024c-.147-4.192.68-12.228 10.906-15.171.703-.203 1.4.293 1.425 1.023.258 7.67-3.487 12.937-10.907 15.172z"/><path fill="#A46648" d="M1760.713 678.147a8.151 8.151 0 0 1-10.671 4.364 8.151 8.151 0 0 1-4.364-10.671 8.152 8.152 0 0 1 10.671-4.364 8.152 8.152 0 0 1 4.364 10.671z"/></g><g style="display:block"><path fill="#FFF" d="M1712.548 661.013c.38-3.933 3.956-7.211 7.85-7.193 3.894.018 6.524 3.327 5.768 7.258l-1.472 7.668c-.668 3.474-3.897 6.192-7.338 6.175-3.44-.018-6.385-1.572-6.05-5.047l1.242-8.86z"/><path fill="#A46648" d="M1710.294 673.21c1.698-2.58 11.75-5.765 15.903-4.86l-4.314 9.31c-6.241 1.226-11.589-4.45-11.589-4.45z"/><path fill="none" stroke="#86401F" stroke-linecap="round" stroke-width="4" d="M1696 667.534c4.338-3.134 8.575.744 8.575.744"/><path fill="#86401F" d="M1708.885 668.844c.1.015 1.921 3.44 1.716 4.764a2.425 2.425 0 0 1-4.792-.741c.205-1.324 2.977-4.039 3.076-4.023zm-.653 7.11-2.1.098a2.497 2.497 0 0 1-.231-4.988l2.1-.098a2.498 2.498 0 0 1 .23 4.988z"/><path fill="#A41414" d="M1723.44 679.578c-1.628 5.916-11.727 10.168-18.889 5.866-2.115-1.271-1.276-4.249 1.06-5.045 3.2-1.091 6.033-2.897 8.657-5.346 2.625-2.449 5.931-3.088 7.947-.627 1.055 1.289 1.814 3.016 1.226 5.152z"/><path fill="none" stroke="#3D3D3D" stroke-linecap="round" stroke-width="6.095" d="m1720.557 660.495-.478 4.952"/><path fill="#E64340" d="M1712.884 683.726c-1.35-2.364.251-5.822 3.578-7.722 2.182-1.247 4.563-1.515 6.325-.885.743 1.185 1.141 2.658.705 4.43-.898 3.641-4.497 5.537-6.117 6.22-1.96.09-3.673-.613-4.49-2.043z"/><path fill="#E7E7E7" d="M1718.407 676.851a5.596 5.596 0 0 1-9.313 2.025c1.865-1 2.894-1.63 5.225-3.853 2.331-2.223 5.932-3.088 7.948-.626.278.341.533.712.746 1.112-.345.341-1.55 2.241-4.606 1.342z"/></g><path fill="#FDB02A" d="m749.545 173.4-6.236 3.947c-11.545 7.307-26.828 3.871-34.135-7.675l-3.946-6.236c-7.229-11.421-3.83-26.538 7.59-33.766 14.99-9.487 34.832-5.027 44.319 9.963 7.228 11.421 3.829 26.539-7.592 33.767zm-2.502-9.683-33.434-7.517 4.609-20.499c2.076-9.233 11.242-15.035 20.475-12.959 9.232 2.076 15.034 11.242 12.958 20.475l-4.608 20.5z" style="display:block" transform="rotate(2.126 -14126.122 26738.602)"/><path fill="#1CB0F6" d="M740.472 155.971c10.32 11.635 9.254 29.433-2.381 39.753s-29.433 9.254-39.753-2.381-9.254-29.433 2.381-39.753 29.433-9.254 39.753 2.381z" style="display:block" transform="rotate(2.126 -14139.592 26738.352)"/><g style="display:block"><path fill="none" stroke="#A46648" stroke-linecap="round" stroke-linejoin="round" stroke-width="13" d="m1757.213 728.274 6.119-24.442m3.014 24.655 14.291-12.963"/><path fill="#A46648" d="m1724.514 725.798 12.233 22.291 31.358-23.005s-29.12-10.05-31.436-10.552c-3.025-.945-6.485-1.738-9.29.12a8.586 8.586 0 0 0-2.865 11.146zm51.765 13.204-.025-.415c-.36-5.709-2.756-10.802-6.389-14.518-4.025-4.118-9.565-6.546-15.53-6.25-11.349.566-19.361 10.71-18.61 22.645l.025.41c.75 11.936 10 21.511 21.349 20.944 11.35-.566 19.935-10.781 19.18-22.816z"/><path fill="none" stroke="#86401F" stroke-linecap="round" stroke-width="4" d="m1741.896 732.013 12.61-6.209c3.198-1.574 7.16-.371 8.848 2.687 0 0 0 0 0 0 1.69 3.058.466 6.813-2.732 8.387l-12.61 6.208"/></g><g style="display:block"><path fill="#1CB0F6" d="M1694.191 769.392c-8.927.604-17.462-4.886-20.344-13.785-1.077-3.324-2.47-7.328-4.273-11.418-6.153 4.74-10.794 10.778-16.365 16.449-7.704 7.84-20.306 7.951-28.146.247s-7.952-20.307-.248-28.147c.327-.333 8.903-8.24 17.702-16.026 17.4-15.393 26.301-21.115 36.13-19.695a20.711 20.711 0 0 1 13.096 7.391c10.94 12.965 16.718 28.384 20.12 38.886 3.401 10.497-2.353 21.765-12.85 25.166a20.062 20.062 0 0 1-4.822.932z"/><path fill="none" stroke="#0395DB" stroke-linecap="round" stroke-linejoin="round" stroke-width="4" d="m1654.373 757.15 14.65-14.618s5.859 21.78 13.66 24.133"/><path fill="#5EC6FF" d="M1642.667 773.597c-3.367 3.4-13.02-.702-21.56-9.16s-12.734-18.07-9.367-21.47c.868-.877 11.057-10.99 13.182-13.037 3.42-3.296 13.066 1.086 21.276 9.039 8.21 7.952 12.67 17.703 9.329 21.453-3.34 3.75-12.407 12.718-12.86 13.175z"/><path fill="none" stroke="#33B4F7" stroke-linecap="round" stroke-width="4.078" d="M1617.027 744.594c4.207 1.049 9.585 4.353 14.51 9.255 4.926 4.902 8.256 10.265 9.326 14.468"/><path fill="none" stroke="#FF4B4B" stroke-linecap="round" stroke-width="13.049" d="M1605.31 748.06c4.587 9.466 13.565 16.928 13.565 16.928"/></g></g><g clip-path="url(#bN)" style="display:block" transform="matrix(-1 0 0 1 1916 -23.5)"><path fill="#FFB7E3" d="M467.017-248.933s-21.285-1.263-52.276-3.165c-15.682-.962-21.741 12.598-21.142 21.885.599 9.287 9.345 23.196 24.422 18.787 30.521-8.926 62.293-17.748 62.293-17.748l-13.297-19.759z" style="display:block" transform="rotate(2.337 -12990.215 23929.642)"/><g style="display:block"><path fill="#FFB7E3" d="M1389.814 314.728c-30.908-3.11-43.885-4.564-58.585-5.548-14.7-.984-26.077 17.138-24.065 33.035 2.026 16.008 17.238 28.474 31.809 25.512 14.586-2.964 21.646-4.653 52.46-12.227 15.185-3.733 17.961-13.098 18.05-20.603.09-7.504-3.994-18.591-19.67-20.169z"/><path fill="#FF9BDE" d="M1350.452 342.845c-2.357 12.948-13.07 21.78-23.925 19.727-10.855-2.054-17.744-14.215-15.386-27.163 2.357-12.95 13.07-21.782 23.925-19.728 10.856 2.053 17.744 14.215 15.386 27.164z"/></g><path fill="none" stroke="#FF7AD5" stroke-linecap="round" stroke-linejoin="round" stroke-width="28.967" d="M333.18-229.75c4-8.5 10.365-20.404 16.534-28.726" style="display:block" transform="rotate(-8.757 4499.497 -6309.498)"/><path fill="none" stroke="#FF86D0" stroke-linecap="round" stroke-linejoin="round" stroke-width="15" d="M502.881-191.052c.376-4.651-.544-10.655-2.324-15.564" style="display:block" transform="rotate(-29.408 2073.462 -1778.606)"/><path fill="#FFB7E3" d="M477.637-216.167c-7.613 5.833-.003.004-.006.006 0 0-18.631 14.661-50.031 23.985-8.308 2.467-15.805 6.766-15.948 15.431-.142 8.665 6.764 15.82 15.43 15.948 28.668.422 61.793-23.578 70.09-30.808 7.129-6.212 7.901-15.269 2.504-22.049-5.394-6.777-14.426-8.346-22.039-2.513z" style="display:block" transform="rotate(1.078 -29302.574 51872.014)"/><path fill="#FFB7E3" d="M457.463-227.353c-11.621 5.879-32.272 15.702-43.279 41.145-11.007 25.443 20.779 26.539 27.111 14.999 7.705-14.041 24.272-24.118 27.134-26.05 17.148-11.237 6.297-41.165-10.961-30.097" style="display:block" transform="rotate(.662 -48314.92 84443.778)"/><path fill="#FFB3E6" d="M528.609-252.517c-1.324-2.088 4.65-9.711 4.65-9.711l14.956 10.268a12.758 12.758 0 0 0 7.223 2.241l22.195.002c4.776 0 7.827 5.094 5.572 9.305l-2.776 5.185a32.342 32.342 0 0 0-3.439 10.258c-.964 6.153-7.198 9.99-13.126 8.079l-5.291-1.706a42.078 42.078 0 0 1-26.151-24.402l-3.813-9.519z" style="display:block" transform="rotate(-2.125 16361.163 -26251.194)"/><g style="display:block"><path fill="#FFB7E3" d="M1468.612 301.693c18.022 13.696 21.528 39.407 7.832 57.43-6.632 8.727-19.471 15.633-32.612 12.91-14.08-2.918-23.416-15.025-29.629-24.907-3.71-5.9-6.206-11.151-7.572-17.843-1.365-6.692.13-14.309 4.553-19.756 14.27-17.571 39.407-21.529 57.428-7.834z"/><path fill="#FF86D0" d="M1484.55 338.844a41.1 41.1 0 0 0 .225-5.663l-7.174-15.52-19.333-21.69a40.495 40.495 0 0 0-3.857-1.239l-6-1.132-.068-.01c-8 7.533-9.198 21.259-1.856 31.597 8.638 12.165 22.121 18.722 38.062 13.657z"/><path fill="#FFB3E6" d="M1459.651 330.787a.666.666 0 0 1 .978-.042l2.783 2.764a.666.666 0 0 1 .037.906l-4.3 5.026a.666.666 0 0 1-.94.073l-2.952-2.528a.667.667 0 0 1-.074-.938l4.468-5.261zm-13.303-22.686c.355-.16.77.018.9.384l1.324 3.692a.666.666 0 0 1-.356.833l-6.042 2.69a.666.666 0 0 1-.88-.339l-1.58-3.552a.667.667 0 0 1 .337-.879l6.297-2.829z"/><path fill="#1CB0F6" d="M1456.682 288.238c27.372-2.546 40.583 20.319 33.805 39.902l-.867 2.505c-3.015 8.71-22.701 12.56-35.775-5.16-15.248-18.893-7.444-35.855 2.837-37.247z"/></g><path fill="none" stroke="#1CB0F6" stroke-linecap="round" stroke-linejoin="round" stroke-width="21" d="M486.642-355.442s3.126 26.91 3.629 39.388c.509 12.654-.593 36.013-.593 36.013" style="display:block" transform="rotate(.034 -896928.808 1537697.449)"/><path fill="none" stroke="#1CB0F6" stroke-linecap="round" stroke-width="21" d="M510.496-244.498s25.303 1.88 37.976 2.127c15.154.294 45.453-.507 45.453-.507" style="display:block" transform="rotate(.034 -896928.808 1537697.449)"/><path fill="#E18E70" d="M495.071-354.738c-6.063 6.951-16.614 7.671-23.566 1.608-6.952-6.064-7.672-16.615-1.609-23.566 6.064-6.952 16.615-7.673 23.567-1.609 6.952 6.064 7.671 16.615 1.608 23.567z" style="display:block" transform="rotate(.034 -896796.238 1541968.887)"/><path fill="#E18E70" d="M592.492-232.902c-7.193-7.197-7.191-18.862.006-26.057 7.198-7.194 18.865-7.191 26.058.006 7.194 7.198 7.191 18.864-.007 26.058-7.198 7.194-18.862 7.19-26.057-.007z" style="display:block" transform="rotate(.034 -898485.967 1536862.412)"/><path fill="#FFB3E6" d="M606.933-297.91c-9.289 35.122-45.292 56.063-80.414 46.774-35.122-9.29-56.063-45.292-46.774-80.414 9.289-35.122 45.292-56.063 80.414-46.774 35.122 9.289 56.063 45.292 46.774 80.414z" style="display:block" transform="rotate(1.765 -17495.264 31542.248)"/><g style="display:block"><path fill="#E18E70" d="M1523.58 236.933c19.234 16.288 23.025 43.47 8.467 60.715-14.558 17.245-38.12 19.047-57.354 2.76-19.235-16.288-26.858-44.496-12.3-61.741 14.558-17.245 41.953-18.021 61.187-1.734z"/><path fill="#A70000" d="M1475.482 295.025c-1.08 3.633 2.671 11.174 17.54 15.15 14.868 3.976 17.756-5.385 18.386-7.504.63-2.12 1.98-11.348-5.355-13.31-5.748-1.537-13.058 3.264-20.195 1.355-7.138-1.908-9.296.675-10.376 4.309z"/><path fill="#FFF" d="M1506.055 289.363c-2.72-.728-5.788-.037-9.023.692-3.604.81-7.414 1.668-11.174.662-3.306-.883-5.544-.804-7.101-.102 1.812 2.103 5.03 4.17 10.15 5.625 9.41 2.657 17.198.175 21.793-2.833-.665-1.945-2.359-3.433-4.645-4.044z"/><path fill="#9E4D31" d="M1486.415 276.48c.134.103.107 6.63-1.134 8.443-1.236 1.807-4.073 1.92-5.846.55-1.773-1.369-2.04-3.577-.692-5.21 1.235-1.655 7.538-3.887 7.672-3.784zm-15.26-19.157c-.824-.129-1.355-.916-1.184-1.76.17-.842.981-1.422 1.806-1.293 5.914.921 9.401 4.288 11.296 8.101 1.864 3.75 2.191 7.917 1.924 10.653-.083.852-.831 1.511-1.671 1.473-.838-.039-1.45-.76-1.368-1.613.223-2.283-.062-5.856-1.629-9.01-1.536-3.09-4.301-5.792-9.173-6.551zm40.06 26.535c.49.65 1.458.814 2.16.366.702-.448.873-1.339.383-1.989-3.735-4.946-8.623-6.87-13.193-7.214-4.5-.34-8.66.849-11.163 2.068-.756.368-1.04 1.233-.637 1.931.404.699 1.343.967 2.099.599 2.08-1.014 5.656-2.036 9.467-1.748 3.74.281 7.737 1.82 10.884 5.987z"/><path fill="#3B3B3B" d="M1551.06 266.199c.277-1.419-1.341-2.648-2.716-2.437-1.608.375-3.715.251-6.33-.99-4.541-2.122-9.04-29.043-37.853-37.14-9.696-2.846-25.096-1.496-26.032 2.636-2.989 13.709 2.39 40.4 34.219 49.264 28.093 7.932 36.005-3.314 38.712-11.333z"/></g></g><g clip-path="url(#bY)" style="display:block" transform="matrix(-1 0 0 1 1916 -23.5)"><g mask="url(#bZ)" style="display:block"><g clip-path="url(#ca)"><path fill="none" stroke="#3D3D3D" stroke-linecap="round" stroke-linejoin="round" stroke-width="24" d="M541.75 368c5.75 8.75 22.071 22.16 22.071 22.16s10.171 1.204 17.266-5.709" style="display:block" transform="rotate(-6.001 6125.918 -8633.348)"/><path fill="#3D3D3D" d="M515.631 280.06c17.811 0 32.25 14.439 32.25 32.25s-14.014 31.792-31.825 31.792-33.434-13.935-33.434-31.746 15.198-32.296 33.009-32.296zm37.063 10.191c26.438-4.35 49.58 5.502 52.209 28.34 2.629 22.838-19.849 32.746-42.826 33.493-51.772 1.682-70.509-51.776-9.383-61.833z" style="display:block" transform="rotate(-6 6146.779 -8594.894)"/><path fill="#DB8D74" d="M521.5 303c-16.5 11-42 12.5-66 13.5s-53.834 22.53-51 52c2.5 26 27.5 43 54.5 43.5 30.012.556 61-2.5 100.5-24s36.5-55.5 23.5-77-45-19-61.5-8z" style="display:block" transform="rotate(-6 6207.043 -8631.536)"/><g mask="url(#cb)" style="display:block"><path fill="#FFAADE" d="M1468.486 843.802c12.187-5.889-141.545-21.056-120.62 86.501 24.057 123.663 217.48 8.157 183.98 18.872-18.24 5.835-37.063 6.126-52.224.37a52.71 52.71 0 0 1-8.738-4.253 46.815 46.815 0 0 1-7.354-5.522c-7.586-6.98-14.101-17.327-17.956-29.34-7.886-24.578 5.074-58.008 22.912-66.628zm-24.563 10.378s-110.177-10.375-96.712 74.684c13.465 85.058 144.2 37.92 144.2 37.92s-66.13-4.529-75.99-46.788c-9.684-41.504 28.502-65.816 28.502-65.816zm-33.247 26.333-3.358 6.092 11.053-1.402 2.991-6.249-10.686 1.56zm17.723-22.547s-93.112 5.285-78.152 71.081c14.96 65.797 119.856 41.101 119.856 41.101s-52.298-6.784-63.227-48.902c-9.475-36.513 21.523-63.28 21.523-63.28zm-13.6 59.343-10.334 3.153 2.727 8.444 9.888-3.846-2.282-7.751z"/><path fill="#A56641" d="M1443.923 854.18s-110.177-10.375-96.712 74.684c13.465 85.058 144.2 37.92 144.2 37.92s-66.13-4.529-75.99-46.788c-9.684-41.504 28.502-65.816 28.502-65.816z"/><path fill="#2CE69B" d="m1410.676 880.513-3.358 6.092 11.053-1.402 2.991-6.249-10.686 1.56zm17.723-22.547s-93.112 5.285-78.152 71.081c14.96 65.797 119.856 41.101 119.856 41.101s-52.298-6.784-63.227-48.902c-9.475-36.513 21.523-63.28 21.523-63.28zm-13.6 59.343-10.334 3.153 2.727 8.444 9.888-3.846-2.282-7.751z"/></g><g mask="url(#cc)" style="display:block"><path fill="#3D3D3D" d="M1472.102 805.774c-23.24 3.7-30.022 25.288-29.279 39.527.744 14.25 4.38 29.705 23.967 36.696 20.559 7.337 44.65-5.699 45.989-36.005.966-21.868-17.437-43.918-40.677-40.218z"/></g><path fill="#3D3D3D" d="M557.75 265.5c16.983 0 30.75 13.711 30.75 30.625s-13.767 30.625-30.75 30.625S527 313.039 527 296.125s13.767-30.625 30.75-30.625z" style="display:block" transform="rotate(-6 6133.493 -8523.843)"/><path fill="#DB8D74" d="M512.021 320.5c6.639 0 12.02 5.382 12.02 12.021 0 6.639-5.381 12.02-12.02 12.02-6.639 0-12.021-5.381-12.021-12.02 0-6.639 5.382-12.021 12.021-12.021z" style="display:block" transform="rotate(-6 6925.219 -9840.017) scale(.75)"/><g style="display:block"><path fill="#B82C2C" d="M1498.31 902.702a2.511 2.511 0 0 1 3.552.032l21.38 21.771c.972.99.959 2.58-.031 3.553l-.21.205c-7.002 6.877-18.253 6.774-25.129-.227-6.876-7.003-6.774-18.253.228-25.13l.21-.204z"/><path fill="#FD5050" d="M1507.829 933.145a17.69 17.69 0 0 1-9.957-5.11 17.713 17.713 0 0 1-5.091-12.376 17.65 17.65 0 0 1 9.97 5.103 17.668 17.668 0 0 1 5.078 12.383z" opacity=".8"/></g><path fill="none" stroke="#3D3D3D" stroke-linecap="round" stroke-linejoin="round" stroke-width="24" d="M536.818 374.269c8.057 4.734 26.951 16.388 26.951 16.388l12.016-2.71" style="display:block" transform="rotate(-6.001 6125.918 -8633.348)"/><g style="display:block"><path fill="#FFF" d="M1546.976 907.605s4.684-5.066 8.91-9.991c2.41-7.974 3.334-14.691 2.907-22.24-3.543 1.251-5.795 8.749-6.798 12.664l-5.019 19.567zm-3.204-29.589c-4.976-2.309-11.18.157-12.975 5.613l-4.452 13.391c10.947 2.443 16.06 9.047 16.06 9.047l4.86-16.1c1.235-3.751.401-10.267-3.493-11.95z"/><path fill="#3D3D3D" d="M1553.674 882.871c.737-2.761 2.425-4.811 3.772-4.58 1.348.232 1.844 2.658 1.107 5.42l-.464 1.739c-.736 2.761-2.425 4.811-3.773 4.58-1.347-.232-1.844-2.659-1.107-5.42l.465-1.739zm-14.279 2.216c.61-2.758 2.677-4.685 4.618-4.304 1.941.38 3.02 2.925 2.41 5.683l-.385 1.736c-.61 2.758-2.677 4.686-4.618 4.306-1.941-.381-3.02-2.926-2.41-5.683l.385-1.738z"/></g><path fill="none" stroke="#3D3D3D" stroke-linecap="round" stroke-linejoin="round" stroke-width="12" d="M568.75 333.5s7.5-2 11.5 1m17.608 3.473s7.344 2.513 8.997 7.232" style="display:block" transform="rotate(-13 3371.808 -3626.748)"/><path fill="#DB8D74" d="M571.295 372.25c4.029 0 7.295 3.217 7.295 7.186s-3.266 7.186-7.295 7.186-7.295-3.217-7.295-7.186 3.266-7.186 7.295-7.186z" style="display:block" transform="rotate(-6 5787.619 -8069.133) scale(1.1)"/></g></g><g style="display:block"><path fill="#DB8D74" d="M1426.482 950.142c-7.733 3.358-18.58 7.433-15.632 17.87 2.647 9.368 14.428 8.414 22.007 4.922 3.967 4.669 9.756 1.055 7.452-3.811-3.858-8.147-7.33-21.802-13.827-18.98z"/><path fill="none" stroke="#FFAADE" stroke-linecap="round" stroke-linejoin="round" stroke-width="25" d="m1433.348 928.641-1.712 27.719"/></g></g></g></svg>